%TF.GenerationSoftware,KiCad,Pcbnew,(6.0.7)*%
%TF.CreationDate,2022-12-27T00:19:56+01:00*%
%TF.ProjectId,Kestrel47,4b657374-7265-46c3-9437-2e6b69636164,rev?*%
%TF.SameCoordinates,Original*%
%TF.FileFunction,Soldermask,Bot*%
%TF.FilePolarity,Negative*%
%FSLAX46Y46*%
G04 Gerber Fmt 4.6, Leading zero omitted, Abs format (unit mm)*
G04 Created by KiCad (PCBNEW (6.0.7)) date 2022-12-27 00:19:56*
%MOMM*%
%LPD*%
G01*
G04 APERTURE LIST*
%ADD10R,1.200000X0.900000*%
%ADD11R,1.524000X1.524000*%
%ADD12C,1.524000*%
%ADD13C,3.987800*%
%ADD14C,1.750000*%
%ADD15C,2.250000*%
%ADD16C,3.048000*%
%ADD17R,1.350000X1.350000*%
%ADD18O,1.350000X1.350000*%
%ADD19R,1.700000X1.700000*%
%ADD20O,1.700000X1.700000*%
%ADD21R,1.752600X1.752600*%
%ADD22C,1.752600*%
%ADD23C,0.900000*%
%ADD24R,1.500000X0.700000*%
%ADD25R,0.800000X1.000000*%
%ADD26R,3.000000X1.500000*%
G04 APERTURE END LIST*
D10*
%TO.C,D29*%
X176212500Y-66737500D03*
D11*
X176212500Y-68897500D03*
D10*
X176212500Y-63437500D03*
D12*
X176212500Y-61277500D03*
%TD*%
D11*
%TO.C,D7*%
X61912500Y-68897500D03*
D10*
X61912500Y-66737500D03*
X61912500Y-63437500D03*
D12*
X61912500Y-61277500D03*
%TD*%
D13*
%TO.C,MX27*%
X158750000Y-25400000D03*
D14*
X153670000Y-25400000D03*
X163830000Y-25400000D03*
D15*
X154940000Y-22860000D03*
X161290000Y-20320000D03*
%TD*%
D11*
%TO.C,D43*%
X242887500Y-30797500D03*
D10*
X242887500Y-28637500D03*
X242887500Y-25337500D03*
D12*
X242887500Y-23177500D03*
%TD*%
D11*
%TO.C,D47*%
X261937500Y-30735000D03*
D10*
X261937500Y-28575000D03*
D12*
X261937500Y-23115000D03*
D10*
X261937500Y-25275000D03*
%TD*%
D14*
%TO.C,MX45*%
X244157500Y-63500000D03*
D13*
X249237500Y-63500000D03*
D14*
X254317500Y-63500000D03*
D15*
X245427500Y-60960000D03*
X251777500Y-58420000D03*
%TD*%
D10*
%TO.C,D17*%
X109537500Y-28637500D03*
D11*
X109537500Y-30797500D03*
D12*
X109537500Y-23177500D03*
D10*
X109537500Y-25337500D03*
%TD*%
D13*
%TO.C,MX32*%
X182562500Y-44450000D03*
D14*
X177482500Y-44450000D03*
X187642500Y-44450000D03*
D15*
X178752500Y-41910000D03*
X185102500Y-39370000D03*
%TD*%
D10*
%TO.C,D38*%
X219075000Y-85787500D03*
D11*
X219075000Y-87947500D03*
D12*
X219075000Y-80327500D03*
D10*
X219075000Y-82487500D03*
%TD*%
D11*
%TO.C,D2*%
X35687000Y-49911000D03*
D10*
X35687000Y-47751000D03*
X35687000Y-44451000D03*
D12*
X35687000Y-42291000D03*
%TD*%
D14*
%TO.C,MX37*%
X211455000Y-63500000D03*
X201295000Y-63500000D03*
D13*
X206375000Y-63500000D03*
D15*
X202565000Y-60960000D03*
X208915000Y-58420000D03*
%TD*%
D10*
%TO.C,D18*%
X114300000Y-47687500D03*
D11*
X114300000Y-49847500D03*
D12*
X114300000Y-42227500D03*
D10*
X114300000Y-44387500D03*
%TD*%
D13*
%TO.C,MX13*%
X82550000Y-25400000D03*
D14*
X77470000Y-25400000D03*
X87630000Y-25400000D03*
D15*
X78740000Y-22860000D03*
X85090000Y-20320000D03*
%TD*%
D11*
%TO.C,D46*%
X259588000Y-87947500D03*
D10*
X259588000Y-85787500D03*
D12*
X259588000Y-80327500D03*
D10*
X259588000Y-82487500D03*
%TD*%
D14*
%TO.C,MX10*%
X63182500Y-44450000D03*
X73342500Y-44450000D03*
D13*
X68262500Y-44450000D03*
D15*
X64452500Y-41910000D03*
X70802500Y-39370000D03*
%TD*%
D11*
%TO.C,D31*%
X185737500Y-30797500D03*
D10*
X185737500Y-28637500D03*
X185737500Y-25337500D03*
D12*
X185737500Y-23177500D03*
%TD*%
D14*
%TO.C,MX23*%
X140017500Y-82550000D03*
D13*
X134937500Y-82550000D03*
D14*
X129857500Y-82550000D03*
D15*
X131127500Y-80010000D03*
X137477500Y-77470000D03*
%TD*%
D14*
%TO.C,MX33*%
X192405000Y-63500000D03*
X182245000Y-63500000D03*
D13*
X187325000Y-63500000D03*
D15*
X183515000Y-60960000D03*
X189865000Y-58420000D03*
%TD*%
D11*
%TO.C,D8*%
X66675000Y-87947500D03*
D10*
X66675000Y-85787500D03*
X66675000Y-82487500D03*
D12*
X66675000Y-80327500D03*
%TD*%
D14*
%TO.C,MX22*%
X125095000Y-63500000D03*
X135255000Y-63500000D03*
D13*
X130175000Y-63500000D03*
D15*
X126365000Y-60960000D03*
X132715000Y-58420000D03*
%TD*%
D11*
%TO.C,D22*%
X138112500Y-68897500D03*
D10*
X138112500Y-66737500D03*
D12*
X138112500Y-61277500D03*
D10*
X138112500Y-63437500D03*
%TD*%
D11*
%TO.C,D37*%
X214312500Y-68897500D03*
D10*
X214312500Y-66737500D03*
D12*
X214312500Y-61277500D03*
D10*
X214312500Y-63437500D03*
%TD*%
D14*
%TO.C,MX17*%
X106680000Y-25400000D03*
D13*
X101600000Y-25400000D03*
D14*
X96520000Y-25400000D03*
D15*
X97790000Y-22860000D03*
X104140000Y-20320000D03*
%TD*%
D11*
%TO.C,D16*%
X114300000Y-87947500D03*
D10*
X114300000Y-85787500D03*
D12*
X114300000Y-80327500D03*
D10*
X114300000Y-82487500D03*
%TD*%
D14*
%TO.C,MX24*%
X134620000Y-25400000D03*
D13*
X139700000Y-25400000D03*
D14*
X144780000Y-25400000D03*
D15*
X135890000Y-22860000D03*
X142240000Y-20320000D03*
%TD*%
D13*
%TO.C,MX40*%
X220662500Y-44450000D03*
D14*
X215582500Y-44450000D03*
X225742500Y-44450000D03*
D15*
X216852500Y-41910000D03*
X223202500Y-39370000D03*
%TD*%
D10*
%TO.C,D15*%
X100012500Y-66800000D03*
D11*
X100012500Y-68960000D03*
D12*
X100012500Y-61340000D03*
D10*
X100012500Y-63500000D03*
%TD*%
D13*
%TO.C,MX20*%
X120650000Y-25400000D03*
D14*
X115570000Y-25400000D03*
X125730000Y-25400000D03*
D15*
X116840000Y-22860000D03*
X123190000Y-20320000D03*
%TD*%
D10*
%TO.C,D6*%
X57150000Y-47687500D03*
D11*
X57150000Y-49847500D03*
D10*
X57150000Y-44387500D03*
D12*
X57150000Y-42227500D03*
%TD*%
D14*
%TO.C,MX16*%
X101282500Y-82550000D03*
D13*
X106362500Y-82550000D03*
D14*
X111442500Y-82550000D03*
D13*
X94456250Y-74295000D03*
D16*
X94456250Y-89535000D03*
X118268750Y-89535000D03*
D13*
X118268750Y-74295000D03*
D15*
X102552500Y-80010000D03*
X108902500Y-77470000D03*
%TD*%
D13*
%TO.C,MX2*%
X27772544Y-44451161D03*
D14*
X22692544Y-44451161D03*
X32852544Y-44451161D03*
D15*
X23962544Y-41911161D03*
X30312544Y-39371161D03*
%TD*%
D13*
%TO.C,MX36*%
X201612500Y-44450000D03*
D14*
X206692500Y-44450000D03*
X196532500Y-44450000D03*
D15*
X197802500Y-41910000D03*
X204152500Y-39370000D03*
%TD*%
D11*
%TO.C,D24*%
X147637500Y-30797500D03*
D10*
X147637500Y-28637500D03*
D12*
X147637500Y-23177500D03*
D10*
X147637500Y-25337500D03*
%TD*%
D14*
%TO.C,MX38*%
X206057500Y-82550000D03*
X216217500Y-82550000D03*
D13*
X211137500Y-82550000D03*
D15*
X207327500Y-80010000D03*
X213677500Y-77470000D03*
%TD*%
D10*
%TO.C,D19*%
X119062500Y-66737500D03*
D11*
X119062500Y-68897500D03*
D12*
X119062500Y-61277500D03*
D10*
X119062500Y-63437500D03*
%TD*%
D14*
%TO.C,MX8*%
X53657500Y-82550000D03*
D13*
X58737500Y-82550000D03*
D14*
X63817500Y-82550000D03*
D15*
X54927500Y-80010000D03*
X61277500Y-77470000D03*
%TD*%
D14*
%TO.C,MX3*%
X25082500Y-63500000D03*
D13*
X30162500Y-63500000D03*
D14*
X35242500Y-63500000D03*
D15*
X26352500Y-60960000D03*
X32702500Y-58420000D03*
%TD*%
D11*
%TO.C,D9*%
X71437500Y-30797500D03*
D10*
X71437500Y-28637500D03*
X71437500Y-25337500D03*
D12*
X71437500Y-23177500D03*
%TD*%
D11*
%TO.C,D1*%
X33337500Y-30797500D03*
D10*
X33337500Y-28637500D03*
X33337500Y-25337500D03*
D12*
X33337500Y-23177500D03*
%TD*%
D11*
%TO.C,D32*%
X190500000Y-49847500D03*
D10*
X190500000Y-47687500D03*
D12*
X190500000Y-42227500D03*
D10*
X190500000Y-44387500D03*
%TD*%
D14*
%TO.C,MX1*%
X30480000Y-25400000D03*
X20320000Y-25400000D03*
D13*
X25400000Y-25400000D03*
D15*
X21590000Y-22860000D03*
X27940000Y-20320000D03*
%TD*%
D14*
%TO.C,MX34*%
X187007500Y-82550000D03*
D13*
X192087500Y-82550000D03*
D14*
X197167500Y-82550000D03*
D15*
X188277500Y-80010000D03*
X194627500Y-77470000D03*
%TD*%
D13*
%TO.C,MX28*%
X163512500Y-44450000D03*
D14*
X168592500Y-44450000D03*
X158432500Y-44450000D03*
D15*
X159702500Y-41910000D03*
X166052500Y-39370000D03*
%TD*%
D13*
%TO.C,MX26*%
X149225000Y-63500000D03*
D14*
X144145000Y-63500000D03*
X154305000Y-63500000D03*
D15*
X145415000Y-60960000D03*
X151765000Y-58420000D03*
%TD*%
D11*
%TO.C,D3*%
X38100000Y-68897500D03*
D10*
X38100000Y-66737500D03*
X38100000Y-63437500D03*
D12*
X38100000Y-61277500D03*
%TD*%
D14*
%TO.C,MX4*%
X37617923Y-82550000D03*
X27457923Y-82550000D03*
D13*
X32537923Y-82550000D03*
D15*
X28727923Y-80010000D03*
X35077923Y-77470000D03*
%TD*%
D14*
%TO.C,MX46*%
X256714806Y-82550000D03*
D13*
X251634806Y-82550000D03*
D14*
X246554806Y-82550000D03*
D15*
X247824806Y-80010000D03*
X254174806Y-77470000D03*
%TD*%
D13*
%TO.C,MX18*%
X106362500Y-44450000D03*
D14*
X111442500Y-44450000D03*
X101282500Y-44450000D03*
D15*
X102552500Y-41910000D03*
X108902500Y-39370000D03*
%TD*%
D11*
%TO.C,D42*%
X238125000Y-87885000D03*
D10*
X238125000Y-85725000D03*
D12*
X238125000Y-80265000D03*
D10*
X238125000Y-82425000D03*
%TD*%
D14*
%TO.C,MX15*%
X86995000Y-63500000D03*
X97155000Y-63500000D03*
D13*
X92075000Y-63500000D03*
D15*
X88265000Y-60960000D03*
X94615000Y-58420000D03*
%TD*%
D10*
%TO.C,D21*%
X133350000Y-47625000D03*
D11*
X133350000Y-49785000D03*
D12*
X133350000Y-42165000D03*
D10*
X133350000Y-44325000D03*
%TD*%
D11*
%TO.C,D28*%
X171450000Y-49847500D03*
D10*
X171450000Y-47687500D03*
X171450000Y-44387500D03*
D12*
X171450000Y-42227500D03*
%TD*%
D14*
%TO.C,MX29*%
X173355000Y-63500000D03*
D13*
X168275000Y-63500000D03*
D14*
X163195000Y-63500000D03*
D15*
X164465000Y-60960000D03*
X170815000Y-58420000D03*
%TD*%
D10*
%TO.C,D40*%
X228600000Y-47687500D03*
D11*
X228600000Y-49847500D03*
D12*
X228600000Y-42227500D03*
D10*
X228600000Y-44387500D03*
%TD*%
D13*
%TO.C,MX25*%
X144462500Y-44450000D03*
D14*
X139382500Y-44450000D03*
X149542500Y-44450000D03*
D15*
X140652500Y-41910000D03*
X147002500Y-39370000D03*
%TD*%
D13*
%TO.C,MX39*%
X215900000Y-25400000D03*
D14*
X210820000Y-25400000D03*
X220980000Y-25400000D03*
D15*
X212090000Y-22860000D03*
X218440000Y-20320000D03*
%TD*%
D10*
%TO.C,D45*%
X257175000Y-66737500D03*
D11*
X257175000Y-68897500D03*
D12*
X257175000Y-61277500D03*
D10*
X257175000Y-63437500D03*
%TD*%
%TO.C,D4*%
X40386000Y-85851000D03*
D11*
X40386000Y-88011000D03*
D10*
X40386000Y-82551000D03*
D12*
X40386000Y-80391000D03*
%TD*%
D14*
%TO.C,MX5*%
X49530000Y-25400000D03*
D13*
X44450000Y-25400000D03*
D14*
X39370000Y-25400000D03*
D15*
X40640000Y-22860000D03*
X46990000Y-20320000D03*
%TD*%
D10*
%TO.C,D34*%
X200025000Y-85787500D03*
D11*
X200025000Y-87947500D03*
D10*
X200025000Y-82487500D03*
D12*
X200025000Y-80327500D03*
%TD*%
D14*
%TO.C,MX6*%
X54292500Y-44450000D03*
X44132500Y-44450000D03*
D13*
X49212500Y-44450000D03*
D15*
X45402500Y-41910000D03*
X51752500Y-39370000D03*
%TD*%
D13*
%TO.C,MX44*%
X246872306Y-44450000D03*
D14*
X251952306Y-44450000D03*
X241792306Y-44450000D03*
D15*
X243062306Y-41910000D03*
X249412306Y-39370000D03*
%TD*%
D14*
%TO.C,MX12*%
X82867500Y-82550000D03*
D13*
X77787500Y-82550000D03*
D14*
X72707500Y-82550000D03*
D15*
X73977500Y-80010000D03*
X80327500Y-77470000D03*
%TD*%
D10*
%TO.C,D14*%
X95250000Y-47687500D03*
D11*
X95250000Y-49847500D03*
D10*
X95250000Y-44387500D03*
D12*
X95250000Y-42227500D03*
%TD*%
D11*
%TO.C,D10*%
X76200000Y-49847500D03*
D10*
X76200000Y-47687500D03*
D12*
X76200000Y-42227500D03*
D10*
X76200000Y-44387500D03*
%TD*%
D11*
%TO.C,D26*%
X157162500Y-68897500D03*
D10*
X157162500Y-66737500D03*
X157162500Y-63437500D03*
D12*
X157162500Y-61277500D03*
%TD*%
D11*
%TO.C,D5*%
X52387500Y-30797500D03*
D10*
X52387500Y-28637500D03*
X52387500Y-25337500D03*
D12*
X52387500Y-23177500D03*
%TD*%
D11*
%TO.C,D25*%
X152400000Y-49847500D03*
D10*
X152400000Y-47687500D03*
X152400000Y-44387500D03*
D12*
X152400000Y-42227500D03*
%TD*%
D14*
%TO.C,MX31*%
X182880000Y-25400000D03*
X172720000Y-25400000D03*
D13*
X177800000Y-25400000D03*
D15*
X173990000Y-22860000D03*
X180340000Y-20320000D03*
%TD*%
D13*
%TO.C,MX19*%
X111125000Y-63500000D03*
D14*
X116205000Y-63500000D03*
X106045000Y-63500000D03*
D15*
X107315000Y-60960000D03*
X113665000Y-58420000D03*
%TD*%
D14*
%TO.C,MX7*%
X48895000Y-63500000D03*
D13*
X53975000Y-63500000D03*
D14*
X59055000Y-63500000D03*
D15*
X50165000Y-60960000D03*
X56515000Y-58420000D03*
%TD*%
D10*
%TO.C,D33*%
X195262500Y-66737500D03*
D11*
X195262500Y-68897500D03*
D10*
X195262500Y-63437500D03*
D12*
X195262500Y-61277500D03*
%TD*%
D10*
%TO.C,D35*%
X204787500Y-28637500D03*
D11*
X204787500Y-30797500D03*
D10*
X204787500Y-25337500D03*
D12*
X204787500Y-23177500D03*
%TD*%
D10*
%TO.C,D20*%
X128587500Y-28637500D03*
D11*
X128587500Y-30797500D03*
D10*
X128587500Y-25337500D03*
D12*
X128587500Y-23177500D03*
%TD*%
D10*
%TO.C,D23*%
X142875000Y-85787500D03*
D11*
X142875000Y-87947500D03*
D12*
X142875000Y-80327500D03*
D10*
X142875000Y-82487500D03*
%TD*%
D14*
%TO.C,MX42*%
X225107500Y-82550000D03*
D13*
X230187500Y-82550000D03*
D14*
X235267500Y-82550000D03*
D15*
X226377500Y-80010000D03*
X232727500Y-77470000D03*
%TD*%
D13*
%TO.C,MX11*%
X73025000Y-63500000D03*
D14*
X67945000Y-63500000D03*
X78105000Y-63500000D03*
D15*
X69215000Y-60960000D03*
X75565000Y-58420000D03*
%TD*%
D10*
%TO.C,D27*%
X166687500Y-28637500D03*
D11*
X166687500Y-30797500D03*
D10*
X166687500Y-25337500D03*
D12*
X166687500Y-23177500D03*
%TD*%
D11*
%TO.C,D12*%
X85725000Y-87947500D03*
D10*
X85725000Y-85787500D03*
D12*
X85725000Y-80327500D03*
D10*
X85725000Y-82487500D03*
%TD*%
D14*
%TO.C,MX47*%
X259080000Y-25400000D03*
X248920000Y-25400000D03*
D13*
X254000000Y-25400000D03*
D15*
X250190000Y-22860000D03*
X256540000Y-20320000D03*
%TD*%
D14*
%TO.C,MX43*%
X240030000Y-25400000D03*
D13*
X234950000Y-25400000D03*
D14*
X229870000Y-25400000D03*
D15*
X231140000Y-22860000D03*
X237490000Y-20320000D03*
%TD*%
D13*
%TO.C,MX14*%
X87312500Y-44450000D03*
D14*
X92392500Y-44450000D03*
X82232500Y-44450000D03*
D15*
X83502500Y-41910000D03*
X89852500Y-39370000D03*
%TD*%
D11*
%TO.C,D41*%
X233362500Y-68897500D03*
D10*
X233362500Y-66737500D03*
D12*
X233362500Y-61277500D03*
D10*
X233362500Y-63437500D03*
%TD*%
%TO.C,D44*%
X254762000Y-47751000D03*
D11*
X254762000Y-49911000D03*
D10*
X254762000Y-44451000D03*
D12*
X254762000Y-42291000D03*
%TD*%
D11*
%TO.C,D39*%
X223837500Y-30797500D03*
D10*
X223837500Y-28637500D03*
D12*
X223837500Y-23177500D03*
D10*
X223837500Y-25337500D03*
%TD*%
%TO.C,D30*%
X171450000Y-85787500D03*
D11*
X171450000Y-87947500D03*
D12*
X171450000Y-80327500D03*
D10*
X171450000Y-82487500D03*
%TD*%
D14*
%TO.C,MX9*%
X68580000Y-25400000D03*
D13*
X63500000Y-25400000D03*
D14*
X58420000Y-25400000D03*
D15*
X59690000Y-22860000D03*
X66040000Y-20320000D03*
%TD*%
D10*
%TO.C,D36*%
X209550000Y-47687500D03*
D11*
X209550000Y-49847500D03*
D10*
X209550000Y-44387500D03*
D12*
X209550000Y-42227500D03*
%TD*%
D11*
%TO.C,D13*%
X90487500Y-30797500D03*
D10*
X90487500Y-28637500D03*
D12*
X90487500Y-23177500D03*
D10*
X90487500Y-25337500D03*
%TD*%
D16*
%TO.C,MX30*%
X151606250Y-89535000D03*
D14*
X168592500Y-82550000D03*
D13*
X175418750Y-74295000D03*
D16*
X175418750Y-89535000D03*
D14*
X158432500Y-82550000D03*
D13*
X163512500Y-82550000D03*
X151606250Y-74295000D03*
D15*
X159702500Y-80010000D03*
X166052500Y-77470000D03*
%TD*%
D13*
%TO.C,MX35*%
X196850000Y-25400000D03*
D14*
X201930000Y-25400000D03*
X191770000Y-25400000D03*
D15*
X193040000Y-22860000D03*
X199390000Y-20320000D03*
%TD*%
D14*
%TO.C,MX21*%
X130492500Y-44450000D03*
D13*
X125412500Y-44450000D03*
D14*
X120332500Y-44450000D03*
D15*
X121602500Y-41910000D03*
X127952500Y-39370000D03*
%TD*%
D11*
%TO.C,D11*%
X80962500Y-68897500D03*
D10*
X80962500Y-66737500D03*
X80962500Y-63437500D03*
D12*
X80962500Y-61277500D03*
%TD*%
D13*
%TO.C,MX41*%
X225425000Y-63500000D03*
D14*
X230505000Y-63500000D03*
X220345000Y-63500000D03*
D15*
X221615000Y-60960000D03*
X227965000Y-58420000D03*
%TD*%
D17*
%TO.C,J1*%
X22225000Y-76200000D03*
D18*
X22225000Y-74200000D03*
X22225000Y-72200000D03*
%TD*%
D19*
%TO.C,SW1*%
X19050000Y-31750000D03*
D20*
X19050000Y-29210000D03*
%TD*%
D21*
%TO.C,U1*%
X19367500Y-36830000D03*
D22*
X21907500Y-36830000D03*
X24447500Y-36830000D03*
X26987500Y-36830000D03*
X29527500Y-36830000D03*
X32067500Y-36830000D03*
X34607500Y-36830000D03*
X37147500Y-36830000D03*
X39687500Y-36830000D03*
X42227500Y-36830000D03*
X44767500Y-36830000D03*
X47307500Y-36830000D03*
X47307500Y-52070000D03*
X44767500Y-52070000D03*
X42227500Y-52070000D03*
X39687500Y-52070000D03*
X37147500Y-52070000D03*
X34607500Y-52070000D03*
X32067500Y-52070000D03*
X29527500Y-52070000D03*
X26987500Y-52070000D03*
X24447500Y-52070000D03*
X21907500Y-52070000D03*
X19367500Y-52070000D03*
%TD*%
D23*
%TO.C,SW2*%
X17462500Y-42950000D03*
X17462500Y-45950000D03*
D24*
X19212500Y-46700000D03*
X19212500Y-43700000D03*
X19212500Y-42200000D03*
D25*
X16362500Y-48100000D03*
X18562500Y-48100000D03*
X18562500Y-40800000D03*
X16362500Y-40800000D03*
%TD*%
D26*
%TO.C,BT1*%
X52197000Y-51411000D03*
X52197000Y-48411000D03*
%TD*%
M02*
