M48
; DRILL file {KiCad (6.0.7)} date Thu Dec 29 17:16:18 2022
; FORMAT={-:-/ absolute / inch / decimal}
; #@! TF.CreationDate,2022-12-29T17:16:18+01:00
; #@! TF.GenerationSoftware,Kicad,Pcbnew,(6.0.7)
; #@! TF.FileFunction,NonPlated,1,2,NPTH
FMAT,2
INCH
; #@! TA.AperFunction,NonPlated,NPTH,ComponentDrill
T1C0.0354
; #@! TA.AperFunction,NonPlated,NPTH,ComponentDrill
T2C0.0689
; #@! TA.AperFunction,NonPlated,NPTH,ComponentDrill
T3C0.1200
; #@! TA.AperFunction,NonPlated,NPTH,ComponentDrill
T4C0.1570
%
G90
G05
T1
X0.6875Y-1.6909
X0.6875Y-1.8091
T2
X0.8Y-1.0
X0.8934Y-1.75
X0.9875Y-2.5
X1.081Y-3.25
X1.2Y-1.0
X1.2934Y-1.75
X1.3875Y-2.5
X1.481Y-3.25
X1.55Y-1.0
X1.7375Y-1.75
X1.925Y-2.5
X1.95Y-1.0
X2.1125Y-3.25
X2.1375Y-1.75
X2.3Y-1.0
X2.325Y-2.5
X2.4875Y-1.75
X2.5125Y-3.25
X2.675Y-2.5
X2.7Y-1.0
X2.8625Y-3.25
X2.8875Y-1.75
X3.05Y-1.0
X3.075Y-2.5
X3.2375Y-1.75
X3.2625Y-3.25
X3.425Y-2.5
X3.45Y-1.0
X3.6375Y-1.75
X3.8Y-1.0
X3.825Y-2.5
X3.9875Y-1.75
X3.9875Y-3.25
X4.175Y-2.5
X4.2Y-1.0
X4.3875Y-1.75
X4.3875Y-3.25
X4.55Y-1.0
X4.575Y-2.5
X4.7375Y-1.75
X4.925Y-2.5
X4.95Y-1.0
X5.1125Y-3.25
X5.1375Y-1.75
X5.3Y-1.0
X5.325Y-2.5
X5.4875Y-1.75
X5.5125Y-3.25
X5.675Y-2.5
X5.7Y-1.0
X5.8875Y-1.75
X6.05Y-1.0
X6.075Y-2.5
X6.2375Y-1.75
X6.2375Y-3.25
X6.425Y-2.5
X6.45Y-1.0
X6.6375Y-1.75
X6.6375Y-3.25
X6.8Y-1.0
X6.825Y-2.5
X6.9875Y-1.75
X7.175Y-2.5
X7.2Y-1.0
X7.3625Y-3.25
X7.3875Y-1.75
X7.55Y-1.0
X7.575Y-2.5
X7.7375Y-1.75
X7.7625Y-3.25
X7.925Y-2.5
X7.95Y-1.0
X8.1125Y-3.25
X8.1375Y-1.75
X8.3Y-1.0
X8.325Y-2.5
X8.4875Y-1.75
X8.5125Y-3.25
X8.675Y-2.5
X8.7Y-1.0
X8.8625Y-3.25
X8.8875Y-1.75
X9.05Y-1.0
X9.075Y-2.5
X9.2625Y-3.25
X9.45Y-1.0
X9.5194Y-1.75
X9.6125Y-2.5
X9.7069Y-3.25
X9.8Y-1.0
X9.9194Y-1.75
X10.0125Y-2.5
X10.1069Y-3.25
X10.2Y-1.0
T3
X3.7188Y-3.525
X4.6562Y-3.525
X5.9688Y-3.525
X6.9062Y-3.525
T4
X1.0Y-1.0
X1.0934Y-1.75
X1.1875Y-2.5
X1.281Y-3.25
X1.75Y-1.0
X1.9375Y-1.75
X2.125Y-2.5
X2.3125Y-3.25
X2.5Y-1.0
X2.6875Y-1.75
X2.875Y-2.5
X3.0625Y-3.25
X3.25Y-1.0
X3.4375Y-1.75
X3.625Y-2.5
X3.7188Y-2.925
X4.0Y-1.0
X4.1875Y-1.75
X4.1875Y-3.25
X4.375Y-2.5
X4.6562Y-2.925
X4.75Y-1.0
X4.9375Y-1.75
X5.125Y-2.5
X5.3125Y-3.25
X5.5Y-1.0
X5.6875Y-1.75
X5.875Y-2.5
X5.9688Y-2.925
X6.25Y-1.0
X6.4375Y-1.75
X6.4375Y-3.25
X6.625Y-2.5
X6.9062Y-2.925
X7.0Y-1.0
X7.1875Y-1.75
X7.375Y-2.5
X7.5625Y-3.25
X7.75Y-1.0
X7.9375Y-1.75
X8.125Y-2.5
X8.3125Y-3.25
X8.5Y-1.0
X8.6875Y-1.75
X8.875Y-2.5
X9.0625Y-3.25
X9.25Y-1.0
X9.7194Y-1.75
X9.8125Y-2.5
X9.9069Y-3.25
X10.0Y-1.0
T0
M30
