M48
; DRILL file {KiCad (6.0.7)} date Thu Dec 22 19:05:06 2022
; FORMAT={-:-/ absolute / inch / decimal}
; #@! TF.CreationDate,2022-12-22T19:05:06+01:00
; #@! TF.GenerationSoftware,Kicad,Pcbnew,(6.0.7)
; #@! TF.FileFunction,Plated,1,2,PTH
FMAT,2
INCH
; #@! TA.AperFunction,Plated,PTH,ViaDrill
T1C0.0157
; #@! TA.AperFunction,Plated,PTH,ComponentDrill
T2C0.0300
; #@! TA.AperFunction,Plated,PTH,ComponentDrill
T3C0.0315
; #@! TA.AperFunction,Plated,PTH,ComponentDrill
T4C0.0394
; #@! TA.AperFunction,Plated,PTH,ComponentDrill
T5C0.0430
; #@! TA.AperFunction,Plated,PTH,ComponentDrill
T6C0.0579
%
G90
G05
T1
X0.735Y-1.355
X0.83Y-1.745
X0.87Y-1.54
X0.9Y-1.15
X0.9Y-1.25
X1.155Y-1.875
X1.155Y-1.925
X1.78Y-1.87
X1.785Y-1.92
X1.855Y-1.92
X1.955Y-2.02
X10.23Y-2.145
T2
X1.3125Y-0.9125
X1.3125Y-1.2125
X1.405Y-1.665
X1.405Y-1.965
X1.5Y-2.4125
X1.5Y-2.7125
X1.59Y-3.165
X1.59Y-3.465
X2.0625Y-0.9125
X2.0625Y-1.2125
X2.25Y-1.6625
X2.25Y-1.9625
X2.4375Y-2.4125
X2.4375Y-2.7125
X2.625Y-3.1625
X2.625Y-3.4625
X2.8125Y-0.9125
X2.8125Y-1.2125
X3.0Y-1.6625
X3.0Y-1.9625
X3.1875Y-2.4125
X3.1875Y-2.7125
X3.375Y-3.1625
X3.375Y-3.4625
X3.5625Y-0.9125
X3.5625Y-1.2125
X3.75Y-1.6625
X3.75Y-1.9625
X3.9375Y-2.415
X3.9375Y-2.715
X4.3125Y-0.9125
X4.3125Y-1.2125
X4.5Y-1.6625
X4.5Y-1.9625
X4.5Y-3.1625
X4.5Y-3.4625
X4.6875Y-2.4125
X4.6875Y-2.7125
X5.0625Y-0.9125
X5.0625Y-1.2125
X5.25Y-1.66
X5.25Y-1.96
X5.4375Y-2.4125
X5.4375Y-2.7125
X5.625Y-3.1625
X5.625Y-3.4625
X5.8125Y-0.9125
X5.8125Y-1.2125
X6.0Y-1.6625
X6.0Y-1.9625
X6.1875Y-2.4125
X6.1875Y-2.7125
X6.5625Y-0.9125
X6.5625Y-1.2125
X6.75Y-1.6625
X6.75Y-1.9625
X6.75Y-3.1625
X6.75Y-3.4625
X6.9375Y-2.4125
X6.9375Y-2.7125
X7.3125Y-0.9125
X7.3125Y-1.2125
X7.5Y-1.6625
X7.5Y-1.9625
X7.6875Y-2.4125
X7.6875Y-2.7125
X7.875Y-3.1625
X7.875Y-3.4625
X8.0625Y-0.9125
X8.0625Y-1.2125
X8.25Y-1.6625
X8.25Y-1.9625
X8.4375Y-2.4125
X8.4375Y-2.7125
X8.625Y-3.1625
X8.625Y-3.4625
X8.8125Y-0.9125
X8.8125Y-1.2125
X9.0Y-1.6625
X9.0Y-1.9625
X9.1875Y-2.4125
X9.1875Y-2.7125
X9.375Y-3.16
X9.375Y-3.46
X9.5625Y-0.9125
X9.5625Y-1.2125
X10.03Y-1.665
X10.03Y-1.965
X10.125Y-2.4125
X10.125Y-2.7125
X10.22Y-3.1625
X10.22Y-3.4625
X10.3125Y-0.91
X10.3125Y-1.21
T3
X0.875Y-2.8425
X0.875Y-2.9213
X0.875Y-3.0
T4
X0.75Y-1.15
X0.75Y-1.25
T5
X0.7625Y-1.45
X0.7625Y-2.05
X0.8625Y-1.45
X0.8625Y-2.05
X0.9625Y-1.45
X0.9625Y-2.05
X1.0625Y-1.45
X1.0625Y-2.05
X1.1625Y-1.45
X1.1625Y-2.05
X1.2625Y-1.45
X1.2625Y-2.05
X1.3625Y-1.45
X1.3625Y-2.05
X1.4625Y-1.45
X1.4625Y-2.05
X1.5625Y-1.45
X1.5625Y-2.05
X1.6625Y-1.45
X1.6625Y-2.05
X1.7625Y-1.45
X1.7625Y-2.05
X1.8625Y-1.45
X1.8625Y-2.05
T6
X0.85Y-0.9
X0.9434Y-1.65
X1.0375Y-2.4
X1.1Y-0.8
X1.131Y-3.15
X1.1934Y-1.55
X1.2875Y-2.3
X1.381Y-3.05
X1.6Y-0.9
X1.7875Y-1.65
X1.85Y-0.8
X1.975Y-2.4
X2.0375Y-1.55
X2.1625Y-3.15
X2.225Y-2.3
X2.35Y-0.9
X2.4125Y-3.05
X2.5375Y-1.65
X2.6Y-0.8
X2.725Y-2.4
X2.7875Y-1.55
X2.9125Y-3.15
X2.975Y-2.3
X3.1Y-0.9
X3.1625Y-3.05
X3.2875Y-1.65
X3.35Y-0.8
X3.475Y-2.4
X3.5375Y-1.55
X3.725Y-2.3
X3.85Y-0.9
X4.0375Y-1.65
X4.0375Y-3.15
X4.1Y-0.8
X4.225Y-2.4
X4.2875Y-1.55
X4.2875Y-3.05
X4.475Y-2.3
X4.6Y-0.9
X4.7875Y-1.65
X4.85Y-0.8
X4.975Y-2.4
X5.0375Y-1.55
X5.1625Y-3.15
X5.225Y-2.3
X5.35Y-0.9
X5.4125Y-3.05
X5.5375Y-1.65
X5.6Y-0.8
X5.725Y-2.4
X5.7875Y-1.55
X5.975Y-2.3
X6.1Y-0.9
X6.2875Y-1.65
X6.2875Y-3.15
X6.35Y-0.8
X6.475Y-2.4
X6.5375Y-1.55
X6.5375Y-3.05
X6.725Y-2.3
X6.85Y-0.9
X7.0375Y-1.65
X7.1Y-0.8
X7.225Y-2.4
X7.2875Y-1.55
X7.4125Y-3.15
X7.475Y-2.3
X7.6Y-0.9
X7.6625Y-3.05
X7.7875Y-1.65
X7.85Y-0.8
X7.975Y-2.4
X8.0375Y-1.55
X8.1625Y-3.15
X8.225Y-2.3
X8.35Y-0.9
X8.4125Y-3.05
X8.5375Y-1.65
X8.6Y-0.8
X8.725Y-2.4
X8.7875Y-1.55
X8.9125Y-3.15
X8.975Y-2.3
X9.1Y-0.9
X9.1625Y-3.05
X9.35Y-0.8
X9.5694Y-1.65
X9.6625Y-2.4
X9.7569Y-3.15
X9.8194Y-1.55
X9.85Y-0.9
X9.9125Y-2.3
X10.0069Y-3.05
X10.1Y-0.8
T0
M30
