%TF.GenerationSoftware,KiCad,Pcbnew,(6.0.7)*%
%TF.CreationDate,2022-12-29T17:16:15+01:00*%
%TF.ProjectId,Kestrel47,4b657374-7265-46c3-9437-2e6b69636164,rev?*%
%TF.SameCoordinates,Original*%
%TF.FileFunction,Legend,Top*%
%TF.FilePolarity,Positive*%
%FSLAX46Y46*%
G04 Gerber Fmt 4.6, Leading zero omitted, Abs format (unit mm)*
G04 Created by KiCad (PCBNEW (6.0.7)) date 2022-12-29 17:16:15*
%MOMM*%
%LPD*%
G01*
G04 APERTURE LIST*
%ADD10C,0.150000*%
%ADD11C,0.381000*%
%ADD12R,1.752600X1.752600*%
%ADD13C,1.752600*%
G04 APERTURE END LIST*
D10*
X69258333Y-56236904D02*
X69258333Y-51236904D01*
X72115476Y-56236904D02*
X69972619Y-53379761D01*
X72115476Y-51236904D02*
X69258333Y-54094047D01*
X74258333Y-53617857D02*
X75924999Y-53617857D01*
X76639285Y-56236904D02*
X74258333Y-56236904D01*
X74258333Y-51236904D01*
X76639285Y-51236904D01*
X78544047Y-55998809D02*
X79258333Y-56236904D01*
X80448809Y-56236904D01*
X80924999Y-55998809D01*
X81163095Y-55760714D01*
X81401190Y-55284523D01*
X81401190Y-54808333D01*
X81163095Y-54332142D01*
X80924999Y-54094047D01*
X80448809Y-53855952D01*
X79496428Y-53617857D01*
X79020238Y-53379761D01*
X78782142Y-53141666D01*
X78544047Y-52665476D01*
X78544047Y-52189285D01*
X78782142Y-51713095D01*
X79020238Y-51475000D01*
X79496428Y-51236904D01*
X80686904Y-51236904D01*
X81401190Y-51475000D01*
X82829761Y-51236904D02*
X85686904Y-51236904D01*
X84258333Y-56236904D02*
X84258333Y-51236904D01*
X90210714Y-56236904D02*
X88544047Y-53855952D01*
X87353571Y-56236904D02*
X87353571Y-51236904D01*
X89258333Y-51236904D01*
X89734523Y-51475000D01*
X89972619Y-51713095D01*
X90210714Y-52189285D01*
X90210714Y-52903571D01*
X89972619Y-53379761D01*
X89734523Y-53617857D01*
X89258333Y-53855952D01*
X87353571Y-53855952D01*
X92353571Y-53617857D02*
X94020238Y-53617857D01*
X94734523Y-56236904D02*
X92353571Y-56236904D01*
X92353571Y-51236904D01*
X94734523Y-51236904D01*
X99258333Y-56236904D02*
X96877380Y-56236904D01*
X96877380Y-51236904D01*
X103067857Y-52903571D02*
X103067857Y-56236904D01*
X101877380Y-50998809D02*
X100686904Y-54570238D01*
X103782142Y-54570238D01*
X105210714Y-51236904D02*
X108544047Y-51236904D01*
X106401190Y-56236904D01*
X113782142Y-52903571D02*
X114972619Y-56236904D01*
X116163095Y-52903571D01*
X120686904Y-56236904D02*
X117829761Y-56236904D01*
X119258333Y-56236904D02*
X119258333Y-51236904D01*
X118782142Y-51951190D01*
X118305952Y-52427380D01*
X117829761Y-52665476D01*
X122829761Y-55760714D02*
X123067857Y-55998809D01*
X122829761Y-56236904D01*
X122591666Y-55998809D01*
X122829761Y-55760714D01*
X122829761Y-56236904D01*
X127829761Y-56236904D02*
X124972619Y-56236904D01*
X126401190Y-56236904D02*
X126401190Y-51236904D01*
X125924999Y-51951190D01*
X125448809Y-52427380D01*
X124972619Y-52665476D01*
%TO.C,G\u002A\u002A\u002A*%
G36*
X222806920Y-49041366D02*
G01*
X222917214Y-49076404D01*
X222999783Y-49154756D01*
X223127817Y-49320310D01*
X223072653Y-49460612D01*
X223001628Y-49535456D01*
X222819597Y-49649518D01*
X222731149Y-49593739D01*
X222698399Y-49383796D01*
X222705235Y-49346028D01*
X222784112Y-49346028D01*
X222827540Y-49443725D01*
X222863240Y-49425156D01*
X222877445Y-49284297D01*
X222863240Y-49266901D01*
X222792678Y-49283193D01*
X222784112Y-49346028D01*
X222705235Y-49346028D01*
X222729304Y-49213040D01*
X222806920Y-49041366D01*
G37*
G36*
X186402272Y-71425044D02*
G01*
X186558950Y-71344291D01*
X186654076Y-71469393D01*
X186656879Y-71476620D01*
X186672430Y-71701300D01*
X186566036Y-71822617D01*
X186403599Y-71781462D01*
X186363039Y-71740171D01*
X186302366Y-71590810D01*
X186473857Y-71590810D01*
X186495679Y-71744755D01*
X186536196Y-71746593D01*
X186564529Y-71587737D01*
X186545566Y-71519101D01*
X186492863Y-71474143D01*
X186473857Y-71590810D01*
X186302366Y-71590810D01*
X186292293Y-71566014D01*
X186402272Y-71425044D01*
G37*
G36*
X212101869Y-64835281D02*
G01*
X212042524Y-64894626D01*
X211983178Y-64835281D01*
X212042524Y-64775935D01*
X212101869Y-64835281D01*
G37*
G36*
X196565995Y-72281034D02*
G01*
X196671939Y-72347353D01*
X196671963Y-72348458D01*
X196593027Y-72509161D01*
X196430270Y-72673612D01*
X196315888Y-72728271D01*
X196180653Y-72655182D01*
X196102243Y-72585841D01*
X195969663Y-72391416D01*
X196054519Y-72283110D01*
X196315888Y-72253505D01*
X196565995Y-72281034D01*
G37*
G36*
X222763166Y-57458702D02*
G01*
X222861216Y-57347604D01*
X222981983Y-57430096D01*
X223020215Y-57474859D01*
X223116566Y-57656192D01*
X223020037Y-57824999D01*
X222997857Y-57847637D01*
X222849326Y-57965413D01*
X222767150Y-57895038D01*
X222740808Y-57831480D01*
X222730703Y-57654440D01*
X222784112Y-57654440D01*
X222827540Y-57752136D01*
X222863240Y-57733567D01*
X222877445Y-57592708D01*
X222863240Y-57575312D01*
X222792678Y-57591605D01*
X222784112Y-57654440D01*
X222730703Y-57654440D01*
X222725660Y-57566087D01*
X222763166Y-57458702D01*
G37*
G36*
X200707477Y-51126402D02*
G01*
X200707477Y-55874066D01*
X195722430Y-55874066D01*
X195722430Y-53440888D01*
X196246237Y-53440888D01*
X196248049Y-54042049D01*
X196253237Y-54475369D01*
X196261209Y-54724240D01*
X196271375Y-54772056D01*
X196283145Y-54602211D01*
X196285483Y-54544789D01*
X196299608Y-53910248D01*
X196300314Y-53440888D01*
X196839695Y-53440888D01*
X196841507Y-54042049D01*
X196846695Y-54475369D01*
X196854667Y-54724240D01*
X196864833Y-54772056D01*
X196876603Y-54602211D01*
X196878941Y-54544789D01*
X196893066Y-53910248D01*
X196893771Y-53440888D01*
X197433153Y-53440888D01*
X197434965Y-54042049D01*
X197440153Y-54475369D01*
X197448125Y-54724240D01*
X197458291Y-54772056D01*
X197470061Y-54602211D01*
X197472399Y-54544789D01*
X197486524Y-53910248D01*
X197487229Y-53440888D01*
X198026611Y-53440888D01*
X198028423Y-54042049D01*
X198033611Y-54475369D01*
X198041583Y-54724240D01*
X198051749Y-54772056D01*
X198063519Y-54602211D01*
X198065857Y-54544789D01*
X198079982Y-53910248D01*
X198080687Y-53440888D01*
X198620069Y-53440888D01*
X198621881Y-54042049D01*
X198627069Y-54475369D01*
X198635041Y-54724240D01*
X198645207Y-54772056D01*
X198656977Y-54602211D01*
X198659315Y-54544789D01*
X198673440Y-53910248D01*
X198674145Y-53440888D01*
X199213527Y-53440888D01*
X199215339Y-54042049D01*
X199220527Y-54475369D01*
X199228499Y-54724240D01*
X199238665Y-54772056D01*
X199250435Y-54602211D01*
X199252773Y-54544789D01*
X199266898Y-53910248D01*
X199267603Y-53440888D01*
X199806985Y-53440888D01*
X199808797Y-54042049D01*
X199813985Y-54475369D01*
X199821957Y-54724240D01*
X199832123Y-54772056D01*
X199843893Y-54602211D01*
X199846231Y-54544789D01*
X199860356Y-53910248D01*
X199861061Y-53440888D01*
X200400443Y-53440888D01*
X200402255Y-54042049D01*
X200407442Y-54475369D01*
X200415415Y-54724240D01*
X200425581Y-54772056D01*
X200437351Y-54602211D01*
X200439688Y-54544789D01*
X200453814Y-53910248D01*
X200454909Y-53181392D01*
X200442958Y-52500935D01*
X200439915Y-52408340D01*
X200427995Y-52174518D01*
X200417509Y-52162698D01*
X200409046Y-52357504D01*
X200403193Y-52743556D01*
X200400539Y-53305478D01*
X200400443Y-53440888D01*
X199861061Y-53440888D01*
X199861451Y-53181392D01*
X199849500Y-52500935D01*
X199846457Y-52408340D01*
X199834537Y-52174518D01*
X199824051Y-52162698D01*
X199815588Y-52357504D01*
X199809735Y-52743556D01*
X199807081Y-53305478D01*
X199806985Y-53440888D01*
X199267603Y-53440888D01*
X199267993Y-53181392D01*
X199256043Y-52500935D01*
X199252999Y-52408340D01*
X199241079Y-52174518D01*
X199230593Y-52162698D01*
X199222130Y-52357504D01*
X199216277Y-52743556D01*
X199213623Y-53305478D01*
X199213527Y-53440888D01*
X198674145Y-53440888D01*
X198674535Y-53181392D01*
X198662585Y-52500935D01*
X198659541Y-52408340D01*
X198647621Y-52174518D01*
X198637135Y-52162698D01*
X198628672Y-52357504D01*
X198622819Y-52743556D01*
X198620165Y-53305478D01*
X198620069Y-53440888D01*
X198080687Y-53440888D01*
X198081077Y-53181392D01*
X198069127Y-52500935D01*
X198066083Y-52408340D01*
X198054163Y-52174518D01*
X198043677Y-52162698D01*
X198035214Y-52357504D01*
X198029361Y-52743556D01*
X198026707Y-53305478D01*
X198026611Y-53440888D01*
X197487229Y-53440888D01*
X197487619Y-53181392D01*
X197475669Y-52500935D01*
X197472625Y-52408340D01*
X197460705Y-52174518D01*
X197450219Y-52162698D01*
X197441756Y-52357504D01*
X197435904Y-52743556D01*
X197433249Y-53305478D01*
X197433153Y-53440888D01*
X196893771Y-53440888D01*
X196894161Y-53181392D01*
X196882211Y-52500935D01*
X196879167Y-52408340D01*
X196867247Y-52174518D01*
X196856762Y-52162698D01*
X196848298Y-52357504D01*
X196842446Y-52743556D01*
X196839791Y-53305478D01*
X196839695Y-53440888D01*
X196300314Y-53440888D01*
X196300704Y-53181392D01*
X196288753Y-52500935D01*
X196285709Y-52408340D01*
X196273789Y-52174518D01*
X196263304Y-52162698D01*
X196254840Y-52357504D01*
X196248988Y-52743556D01*
X196246333Y-53305478D01*
X196246237Y-53440888D01*
X195722430Y-53440888D01*
X195722430Y-51126402D01*
X200707477Y-51126402D01*
G37*
G36*
X210321496Y-66022197D02*
G01*
X210262150Y-66081542D01*
X210202804Y-66022197D01*
X210262150Y-65962851D01*
X210321496Y-66022197D01*
G37*
G36*
X184262935Y-79511831D02*
G01*
X184258930Y-79299381D01*
X184095615Y-79198537D01*
X183901150Y-79090740D01*
X183853271Y-79007862D01*
X183736189Y-78981911D01*
X183391304Y-78960351D01*
X182828158Y-78943305D01*
X182056294Y-78930898D01*
X181085252Y-78923254D01*
X179924576Y-78920499D01*
X178583806Y-78922756D01*
X177644603Y-78926842D01*
X171435935Y-78959580D01*
X171048113Y-79285982D01*
X170828657Y-79451802D01*
X170611054Y-79549674D01*
X170323427Y-79597148D01*
X169893899Y-79611774D01*
X169711328Y-79612383D01*
X169187911Y-79600176D01*
X168816073Y-79551695D01*
X168510729Y-79449154D01*
X168236174Y-79304015D01*
X168079817Y-79203756D01*
X168490828Y-79203756D01*
X168654023Y-79302919D01*
X169011975Y-79350522D01*
X169582358Y-79355047D01*
X169788349Y-79349566D01*
X170306947Y-79327802D01*
X170657810Y-79289260D01*
X170910572Y-79214478D01*
X171134867Y-79083997D01*
X171361013Y-78910042D01*
X171623593Y-78664883D01*
X172005805Y-78664883D01*
X179620537Y-78603505D01*
X179671995Y-78514486D01*
X179911294Y-78514486D01*
X179913901Y-78565628D01*
X180033210Y-78604202D01*
X180292855Y-78631709D01*
X180716470Y-78649648D01*
X181327687Y-78659520D01*
X182150139Y-78662824D01*
X182248992Y-78662851D01*
X184709294Y-78662851D01*
X184942701Y-78366122D01*
X185102169Y-78200563D01*
X185298106Y-78110817D01*
X185604411Y-78074680D01*
X185930374Y-78069393D01*
X186360261Y-78080896D01*
X186627178Y-78130205D01*
X186805024Y-78239524D01*
X186918047Y-78366122D01*
X187151454Y-78662851D01*
X192041502Y-78662851D01*
X192398321Y-78170276D01*
X192603722Y-77859137D01*
X192732702Y-77610683D01*
X192755140Y-77527363D01*
X192829507Y-77360079D01*
X192868118Y-77337461D01*
X192928851Y-77217690D01*
X193008979Y-76942460D01*
X193091533Y-76590224D01*
X193159549Y-76239435D01*
X193196057Y-75968544D01*
X193188079Y-75858006D01*
X193069858Y-75850583D01*
X192752703Y-75839637D01*
X192275015Y-75826254D01*
X191675198Y-75811524D01*
X191093458Y-75798660D01*
X189016355Y-75754907D01*
X188904541Y-76259346D01*
X188792726Y-76763785D01*
X182396706Y-76763785D01*
X182469914Y-76229673D01*
X182543123Y-75695561D01*
X180559580Y-75695561D01*
X180485397Y-76066472D01*
X180434074Y-76449745D01*
X180411283Y-76870473D01*
X180411215Y-76890309D01*
X180386069Y-77198846D01*
X180323830Y-77390675D01*
X180305979Y-77408273D01*
X180217651Y-77557816D01*
X180132507Y-77845260D01*
X180117320Y-77919717D01*
X180031506Y-78251683D01*
X179928334Y-78490803D01*
X179911294Y-78514486D01*
X179671995Y-78514486D01*
X179826367Y-78247430D01*
X179959541Y-77920197D01*
X180069728Y-77482757D01*
X180108005Y-77238552D01*
X180163160Y-76787632D01*
X180218940Y-76368507D01*
X180243546Y-76200000D01*
X180303280Y-75814253D01*
X179004993Y-75814253D01*
X178400478Y-75818019D01*
X177994030Y-75844486D01*
X177746335Y-75916406D01*
X177618079Y-76056530D01*
X177569944Y-76287610D01*
X177562617Y-76632397D01*
X177562617Y-76648959D01*
X177532979Y-77108945D01*
X177455269Y-77590881D01*
X177346291Y-78021919D01*
X177222848Y-78329214D01*
X177154144Y-78419701D01*
X177076879Y-78451630D01*
X177064220Y-78342098D01*
X177116572Y-78055603D01*
X177160463Y-77863666D01*
X177253355Y-77369086D01*
X177312460Y-76863102D01*
X177323380Y-76625312D01*
X177352467Y-76273821D01*
X177425826Y-76057731D01*
X177464940Y-76024849D01*
X177541569Y-75905683D01*
X177517281Y-75836921D01*
X177402240Y-75782928D01*
X177120968Y-75742859D01*
X176655569Y-75715650D01*
X175988148Y-75700241D01*
X175135911Y-75695561D01*
X172841907Y-75695561D01*
X172762227Y-76226907D01*
X172693490Y-76560163D01*
X172612949Y-76781585D01*
X172581040Y-76820987D01*
X172500655Y-76967562D01*
X172420298Y-77260291D01*
X172396441Y-77387538D01*
X172325370Y-77727375D01*
X172248008Y-77968576D01*
X172225219Y-78010047D01*
X172127573Y-78214794D01*
X172071447Y-78396811D01*
X172005805Y-78664883D01*
X171623593Y-78664883D01*
X171643756Y-78646058D01*
X171826787Y-78404881D01*
X171865421Y-78292809D01*
X171943875Y-78060987D01*
X172020494Y-77986272D01*
X172109109Y-77835650D01*
X172220217Y-77514718D01*
X172338076Y-77087453D01*
X172446941Y-76617827D01*
X172531070Y-76169817D01*
X172574720Y-75807396D01*
X172577570Y-75722522D01*
X172609368Y-75576603D01*
X172874299Y-75576603D01*
X177570697Y-75576869D01*
X177677088Y-75576869D01*
X180292524Y-75576869D01*
X180529907Y-75576869D01*
X182513936Y-75576869D01*
X182757361Y-75576869D01*
X187613298Y-75576869D01*
X187776906Y-75250468D01*
X187906588Y-74991000D01*
X187983886Y-74835047D01*
X187884003Y-74808998D01*
X187580179Y-74785957D01*
X187105848Y-74767105D01*
X186494445Y-74753626D01*
X185779405Y-74746699D01*
X185465499Y-74746028D01*
X184578898Y-74749206D01*
X183906664Y-74759626D01*
X183425856Y-74778614D01*
X183113531Y-74807500D01*
X182946747Y-74847610D01*
X182902118Y-74894393D01*
X182871490Y-75123373D01*
X182828929Y-75309813D01*
X182757361Y-75576869D01*
X182513936Y-75576869D01*
X182620301Y-75072430D01*
X182726665Y-74567991D01*
X185963520Y-74536405D01*
X186933824Y-74528230D01*
X187692905Y-74525695D01*
X188266882Y-74530035D01*
X188681876Y-74542484D01*
X188964005Y-74564276D01*
X189139389Y-74596645D01*
X189234148Y-74640824D01*
X189272490Y-74692748D01*
X189273178Y-74919517D01*
X189223882Y-75001399D01*
X189149866Y-75205697D01*
X189162619Y-75349495D01*
X189198915Y-75433111D01*
X189280175Y-75493317D01*
X189440736Y-75533931D01*
X189714936Y-75558765D01*
X190137112Y-75571637D01*
X190741601Y-75576360D01*
X191209085Y-75576869D01*
X193196090Y-75576869D01*
X193272344Y-74847309D01*
X193329112Y-74244387D01*
X193347542Y-73839290D01*
X193323762Y-73594973D01*
X193253900Y-73474393D01*
X193134085Y-73440506D01*
X193125299Y-73440421D01*
X192931525Y-73359383D01*
X192645195Y-73147787D01*
X192395134Y-72915044D01*
X194772897Y-72915044D01*
X196345561Y-72867406D01*
X197071094Y-72835354D01*
X197590358Y-72790025D01*
X197891902Y-72732697D01*
X197967299Y-72686142D01*
X197999872Y-72637436D01*
X198288673Y-72637436D01*
X198391905Y-72694223D01*
X198646344Y-72721251D01*
X199094428Y-72728268D01*
X199108865Y-72728271D01*
X199533396Y-72718476D01*
X199847057Y-72692575D01*
X199991719Y-72655791D01*
X199995327Y-72648598D01*
X199924126Y-72508659D01*
X199798894Y-72351870D01*
X199520362Y-72190874D01*
X199143965Y-72145460D01*
X198754810Y-72204924D01*
X198438009Y-72358559D01*
X198294212Y-72541142D01*
X198288673Y-72637436D01*
X197999872Y-72637436D01*
X198078178Y-72520344D01*
X198290028Y-72279986D01*
X198343916Y-72224973D01*
X198730751Y-71979531D01*
X199197402Y-71886167D01*
X199679037Y-71933385D01*
X200110821Y-72109689D01*
X200427918Y-72403583D01*
X200530422Y-72612676D01*
X200603914Y-72741919D01*
X200759019Y-72813183D01*
X201053471Y-72842611D01*
X201368279Y-72846963D01*
X201832602Y-72823441D01*
X202088577Y-72755911D01*
X202126303Y-72648932D01*
X202013084Y-72550234D01*
X201892944Y-72408979D01*
X201981708Y-72298225D01*
X202250467Y-72253505D01*
X202527339Y-72280512D01*
X202586692Y-72383148D01*
X202442279Y-72593833D01*
X202410109Y-72629907D01*
X202319753Y-72745098D01*
X202337340Y-72810092D01*
X202502019Y-72839207D01*
X202852935Y-72846761D01*
X203003567Y-72846963D01*
X203793458Y-72846963D01*
X203793458Y-71504163D01*
X204030841Y-71504163D01*
X204037963Y-72081048D01*
X204062272Y-72454702D01*
X204108187Y-72658932D01*
X204180127Y-72727546D01*
X204190811Y-72728271D01*
X204342548Y-72647148D01*
X204604111Y-72431597D01*
X204926208Y-72123348D01*
X205021653Y-72024933D01*
X205692524Y-71321595D01*
X205684181Y-69799466D01*
X205673290Y-69202296D01*
X205649611Y-68675498D01*
X205616535Y-68273148D01*
X205577454Y-68049323D01*
X205573832Y-68039954D01*
X205515672Y-67977042D01*
X205480015Y-68124307D01*
X205464012Y-68494537D01*
X205463483Y-68535286D01*
X205385506Y-69168323D01*
X205154002Y-69637506D01*
X204747810Y-69976035D01*
X204458339Y-70112318D01*
X204030841Y-70280055D01*
X204030841Y-71504163D01*
X203793458Y-71504163D01*
X203793458Y-70235748D01*
X194772897Y-70235748D01*
X194772897Y-72915044D01*
X192395134Y-72915044D01*
X192353868Y-72876636D01*
X192069563Y-72575555D01*
X191905849Y-72346950D01*
X191829437Y-72105209D01*
X191807036Y-71764720D01*
X191805672Y-71466832D01*
X191749783Y-70698861D01*
X191565450Y-70077995D01*
X191227481Y-69537584D01*
X190968425Y-69251946D01*
X190669786Y-68979948D01*
X190429946Y-68852146D01*
X190159499Y-68827304D01*
X190061323Y-68833574D01*
X189609813Y-68870795D01*
X189575702Y-69827588D01*
X189565637Y-70319640D01*
X189585338Y-70635286D01*
X189645441Y-70834731D01*
X189756583Y-70978179D01*
X189783413Y-71003227D01*
X190001704Y-71313278D01*
X189986750Y-71622447D01*
X189741992Y-71911642D01*
X189603029Y-72004398D01*
X189476022Y-72073767D01*
X189337918Y-72128917D01*
X189161464Y-72171473D01*
X188919408Y-72203063D01*
X188584498Y-72225314D01*
X188129480Y-72239852D01*
X187527103Y-72248306D01*
X186750113Y-72252301D01*
X185771260Y-72253465D01*
X185430354Y-72253505D01*
X181679884Y-72253505D01*
X181271864Y-71942293D01*
X181007257Y-71704463D01*
X180912033Y-71494326D01*
X180923065Y-71321294D01*
X180915829Y-71069360D01*
X180840086Y-70765168D01*
X180727118Y-70498499D01*
X180608204Y-70359135D01*
X180586205Y-70354440D01*
X180569850Y-70467483D01*
X180555363Y-70784030D01*
X180543475Y-71270200D01*
X180534915Y-71892116D01*
X180530413Y-72615900D01*
X180529907Y-72965654D01*
X180529907Y-75576869D01*
X180292524Y-75576869D01*
X180292524Y-72865359D01*
X180293118Y-71922587D01*
X180286403Y-71190934D01*
X180259631Y-70644199D01*
X180200052Y-70256179D01*
X180094918Y-70000673D01*
X179931482Y-69851480D01*
X179696995Y-69782396D01*
X179378707Y-69767222D01*
X178963872Y-69779754D01*
X178794185Y-69785815D01*
X177740654Y-69820327D01*
X177677088Y-75576869D01*
X177570697Y-75576869D01*
X177519711Y-72698598D01*
X177501827Y-71860067D01*
X177479317Y-71069323D01*
X177453795Y-70367615D01*
X177426876Y-69796193D01*
X177400174Y-69396307D01*
X177385028Y-69256542D01*
X177301331Y-68692757D01*
X175689970Y-68692757D01*
X175615222Y-69078505D01*
X175506898Y-69406386D01*
X175315177Y-69807706D01*
X175197102Y-70010802D01*
X174951130Y-70354658D01*
X174719304Y-70539811D01*
X174425016Y-70626908D01*
X174417209Y-70628190D01*
X173945283Y-70765974D01*
X173692899Y-70991150D01*
X173645795Y-71187761D01*
X173592203Y-71397448D01*
X173452378Y-71736346D01*
X173276185Y-72093088D01*
X173116599Y-72407169D01*
X173010226Y-72676843D01*
X172945540Y-72964539D01*
X172911013Y-73332689D01*
X172895115Y-73843720D01*
X172890437Y-74182110D01*
X172874299Y-75576603D01*
X172609368Y-75576603D01*
X172622691Y-75515462D01*
X172696262Y-75458178D01*
X172755041Y-75347127D01*
X172796346Y-75043945D01*
X172814558Y-74593588D01*
X172814953Y-74508645D01*
X172814953Y-73559112D01*
X169877337Y-73559112D01*
X169812233Y-73885514D01*
X169763705Y-74180268D01*
X169705430Y-74605555D01*
X169663074Y-74956395D01*
X169604892Y-75352959D01*
X169536935Y-75645445D01*
X169481141Y-75761364D01*
X169430515Y-75907109D01*
X169450706Y-75997603D01*
X169442305Y-76234469D01*
X169390189Y-76327530D01*
X169319881Y-76521073D01*
X169264392Y-76871375D01*
X169238383Y-77245878D01*
X169202182Y-77788368D01*
X169114087Y-78178012D01*
X168944311Y-78498317D01*
X168678003Y-78816833D01*
X168504714Y-79044555D01*
X168490828Y-79203756D01*
X168079817Y-79203756D01*
X167915847Y-79098615D01*
X167684096Y-78917734D01*
X167621581Y-78848284D01*
X167462522Y-78747578D01*
X167148448Y-78646550D01*
X166892196Y-78592867D01*
X166461563Y-78490608D01*
X166157247Y-78326721D01*
X165954122Y-78061581D01*
X165827062Y-77655563D01*
X165750941Y-77069043D01*
X165727954Y-76756798D01*
X165683049Y-76197985D01*
X165627151Y-75830318D01*
X165549875Y-75607561D01*
X165442201Y-75484439D01*
X165281644Y-75270502D01*
X165167375Y-74943948D01*
X165157600Y-74890981D01*
X165080788Y-74540014D01*
X165029071Y-74389954D01*
X168542056Y-74389954D01*
X168632378Y-74505196D01*
X168660748Y-74508645D01*
X168775990Y-74418324D01*
X168779439Y-74389954D01*
X168689118Y-74274711D01*
X168660748Y-74271262D01*
X168545505Y-74361583D01*
X168542056Y-74389954D01*
X165029071Y-74389954D01*
X164986253Y-74265714D01*
X164974824Y-74243200D01*
X164936619Y-74093225D01*
X168423365Y-74093225D01*
X168482710Y-74152570D01*
X168542056Y-74093225D01*
X168482710Y-74033879D01*
X168423365Y-74093225D01*
X164936619Y-74093225D01*
X164913807Y-74003677D01*
X164877406Y-73607313D01*
X164877303Y-73603152D01*
X168102378Y-73603152D01*
X168108884Y-73727334D01*
X168185982Y-73796496D01*
X168373801Y-73859231D01*
X168414642Y-73775806D01*
X168328411Y-73654066D01*
X168165434Y-73578025D01*
X168102378Y-73603152D01*
X164877303Y-73603152D01*
X164865621Y-73133369D01*
X164878451Y-72661108D01*
X164915897Y-72269791D01*
X164971820Y-72055686D01*
X169966355Y-72055686D01*
X169976449Y-72489862D01*
X170003065Y-72826247D01*
X170040704Y-72998858D01*
X170045483Y-73005218D01*
X170190707Y-73038518D01*
X170518779Y-73064905D01*
X170975188Y-73081001D01*
X171322540Y-73084346D01*
X171871345Y-73080423D01*
X172232192Y-73062308D01*
X172454460Y-73020481D01*
X172587529Y-72945425D01*
X172680778Y-72827621D01*
X172684420Y-72821818D01*
X172929884Y-72403874D01*
X173152455Y-71981875D01*
X173321026Y-71619249D01*
X173404488Y-71379424D01*
X173408411Y-71345640D01*
X173361746Y-71280711D01*
X173201440Y-71235050D01*
X172897034Y-71205819D01*
X172418065Y-71190180D01*
X171734070Y-71185294D01*
X171687383Y-71185281D01*
X169966355Y-71185281D01*
X169966355Y-72055686D01*
X164971820Y-72055686D01*
X164974824Y-72044184D01*
X165068749Y-71790038D01*
X165150081Y-71441041D01*
X165157600Y-71396402D01*
X165259341Y-71063502D01*
X165416742Y-70823839D01*
X165442412Y-70802944D01*
X165550309Y-70680015D01*
X165626229Y-70460632D01*
X165680410Y-70098357D01*
X165723091Y-69546753D01*
X165724493Y-69523598D01*
X165779883Y-68820946D01*
X165834884Y-68461758D01*
X169835402Y-68461758D01*
X169876592Y-68799893D01*
X169963297Y-69317516D01*
X169993270Y-69493926D01*
X170138563Y-70354440D01*
X172455964Y-70353525D01*
X174773365Y-70352611D01*
X175061455Y-69849086D01*
X175242190Y-69449504D01*
X175350770Y-68975652D01*
X175403107Y-68425701D01*
X175417566Y-67920179D01*
X175392860Y-67606316D01*
X175335426Y-67505841D01*
X175191946Y-67600664D01*
X175145863Y-67683879D01*
X174974143Y-67818536D01*
X174658398Y-67861916D01*
X174382342Y-67891481D01*
X174243243Y-67964260D01*
X174239253Y-67980608D01*
X174129249Y-68024128D01*
X173833628Y-68058055D01*
X173403972Y-68082114D01*
X172891861Y-68096032D01*
X172348880Y-68099535D01*
X171826609Y-68092348D01*
X171376631Y-68074198D01*
X171050528Y-68044809D01*
X170899883Y-68003909D01*
X170896106Y-67998372D01*
X170768965Y-67964315D01*
X170491561Y-67992872D01*
X170322430Y-68028924D01*
X170083241Y-68086694D01*
X169928895Y-68148917D01*
X169849559Y-68259352D01*
X169835402Y-68461758D01*
X165834884Y-68461758D01*
X165856524Y-68320432D01*
X165967295Y-67986958D01*
X166125073Y-67785429D01*
X166342738Y-67680746D01*
X166406119Y-67665973D01*
X166680116Y-67584430D01*
X166830503Y-67490511D01*
X166984320Y-67414401D01*
X167222764Y-67387150D01*
X167430483Y-67327804D01*
X175070094Y-67327804D01*
X175129439Y-67387150D01*
X175188785Y-67327804D01*
X175129439Y-67268458D01*
X175070094Y-67327804D01*
X167430483Y-67327804D01*
X167573506Y-67286942D01*
X167829907Y-67090421D01*
X168108669Y-66793692D01*
X175052864Y-66793692D01*
X175286271Y-67090421D01*
X175403841Y-67223652D01*
X175538098Y-67308862D01*
X175740211Y-67355946D01*
X176061347Y-67374802D01*
X176552676Y-67375325D01*
X176748858Y-67373297D01*
X177978038Y-67359444D01*
X177147196Y-67196728D01*
X176695873Y-67099328D01*
X176311958Y-67000520D01*
X176078972Y-66921852D01*
X175861277Y-66853596D01*
X175474858Y-66763808D01*
X174985604Y-66667100D01*
X174714019Y-66619195D01*
X174197514Y-66525637D01*
X173749747Y-66433098D01*
X173436580Y-66355713D01*
X173349066Y-66326273D01*
X173129129Y-66259169D01*
X172743633Y-66167110D01*
X172260877Y-66065905D01*
X172043458Y-66024084D01*
X171899143Y-65995268D01*
X172696262Y-65995268D01*
X172804782Y-66033751D01*
X173094569Y-66095393D01*
X173511961Y-66169293D01*
X173705140Y-66200234D01*
X174159317Y-66282369D01*
X174507395Y-66367176D01*
X174695571Y-66440601D01*
X174714019Y-66463748D01*
X174787868Y-66516735D01*
X174832710Y-66496963D01*
X174903818Y-66384670D01*
X175154894Y-66384670D01*
X175163487Y-66518954D01*
X175274542Y-66589468D01*
X175341339Y-66605821D01*
X175560911Y-66652380D01*
X175952606Y-66738377D01*
X176457056Y-66850691D01*
X176909813Y-66952458D01*
X177489161Y-67080935D01*
X178030687Y-67196967D01*
X178463974Y-67285683D01*
X178675126Y-67325276D01*
X179030828Y-67409337D01*
X179310561Y-67514957D01*
X179341880Y-67532693D01*
X179634973Y-67608173D01*
X179902570Y-67450354D01*
X180144335Y-67064405D01*
X180288020Y-66770546D01*
X180394983Y-66581319D01*
X180414491Y-66556309D01*
X180494586Y-66420860D01*
X180628033Y-66142914D01*
X180707944Y-65962851D01*
X180856093Y-65640055D01*
X180973590Y-65419056D01*
X181010145Y-65369393D01*
X181092380Y-65233429D01*
X181223991Y-64951311D01*
X181310150Y-64746707D01*
X181457295Y-64426661D01*
X181584369Y-64222354D01*
X181635802Y-64182922D01*
X181674752Y-64273089D01*
X181641127Y-64474488D01*
X181560727Y-64682306D01*
X181489839Y-64775935D01*
X181401647Y-64911610D01*
X181263086Y-65189996D01*
X181182710Y-65369393D01*
X181034562Y-65692189D01*
X180917065Y-65913188D01*
X180880510Y-65962851D01*
X180798274Y-66098814D01*
X180666663Y-66380933D01*
X180580505Y-66585537D01*
X180434857Y-66905442D01*
X180311460Y-67109762D01*
X180262851Y-67149322D01*
X180190449Y-67249372D01*
X180173832Y-67387150D01*
X180219756Y-67550121D01*
X180399537Y-67616374D01*
X180593428Y-67624533D01*
X180972735Y-67680045D01*
X181301849Y-67813799D01*
X181305578Y-67816221D01*
X181430298Y-67908615D01*
X181513361Y-68021879D01*
X181563220Y-68201778D01*
X181588327Y-68494078D01*
X181597135Y-68944543D01*
X181598131Y-69400162D01*
X181594131Y-70006165D01*
X181577559Y-70421286D01*
X181541557Y-70691956D01*
X181479266Y-70864606D01*
X181383828Y-70985668D01*
X181360748Y-71007243D01*
X181162262Y-71296801D01*
X181138103Y-71597293D01*
X181285776Y-71834229D01*
X181390421Y-71893732D01*
X181586687Y-71925355D01*
X181982227Y-71951907D01*
X182542117Y-71973387D01*
X183231435Y-71989799D01*
X184015256Y-72001145D01*
X184858657Y-72007426D01*
X185726714Y-72008645D01*
X186584503Y-72004803D01*
X187397101Y-71995903D01*
X188129585Y-71981947D01*
X188747030Y-71962936D01*
X189214513Y-71938874D01*
X189497110Y-71909761D01*
X189558270Y-71893254D01*
X189733588Y-71682244D01*
X189785816Y-71372324D01*
X189709092Y-71071002D01*
X189609813Y-70947897D01*
X189528736Y-70827447D01*
X189475207Y-70600089D01*
X189444657Y-70226865D01*
X189432520Y-69668815D01*
X189431776Y-69429392D01*
X189432524Y-68794684D01*
X189455972Y-68329266D01*
X189533928Y-68006930D01*
X189698199Y-67801470D01*
X189841481Y-67743225D01*
X190684404Y-67743225D01*
X191482389Y-68547372D01*
X192280374Y-69351518D01*
X192280374Y-70786247D01*
X193333315Y-71816605D01*
X193740683Y-72209683D01*
X194087225Y-72533639D01*
X194337999Y-72756544D01*
X194458063Y-72846469D01*
X194460885Y-72846963D01*
X194491627Y-72736557D01*
X194515694Y-72438421D01*
X194530145Y-72002181D01*
X194532945Y-71630374D01*
X194530377Y-70413785D01*
X194189757Y-70235748D01*
X193675018Y-69965624D01*
X193333947Y-69774891D01*
X193130853Y-69631048D01*
X193030044Y-69501595D01*
X192995829Y-69354030D01*
X192992518Y-69155853D01*
X192992524Y-69145541D01*
X192970184Y-68856398D01*
X192914685Y-68701172D01*
X192896213Y-68692757D01*
X192747810Y-68619420D01*
X192547154Y-68457287D01*
X192098035Y-68118017D01*
X191602593Y-67867259D01*
X191149502Y-67747688D01*
X191063358Y-67743225D01*
X190684404Y-67743225D01*
X189841481Y-67743225D01*
X189980590Y-67686676D01*
X190412909Y-67636341D01*
X191026963Y-67624258D01*
X191622228Y-67624533D01*
X192431074Y-67632887D01*
X193015504Y-67658554D01*
X193387917Y-67702447D01*
X193560711Y-67765474D01*
X193562243Y-67766963D01*
X193646904Y-67963944D01*
X193697921Y-68299376D01*
X193704673Y-68479112D01*
X193704673Y-69048832D01*
X205217757Y-69048832D01*
X205217757Y-64061628D01*
X193364070Y-64064919D01*
X191703810Y-64064650D01*
X190108853Y-64062969D01*
X188595448Y-64059973D01*
X187179844Y-64055756D01*
X185878290Y-64050415D01*
X184707034Y-64044046D01*
X183682325Y-64036744D01*
X182820412Y-64028604D01*
X182137544Y-64019724D01*
X181649970Y-64010197D01*
X181373937Y-64000120D01*
X181316874Y-63993953D01*
X181150798Y-63889914D01*
X181123365Y-63837150D01*
X181021575Y-63754462D01*
X180760073Y-63630464D01*
X180529907Y-63541200D01*
X180198565Y-63407758D01*
X179983153Y-63293578D01*
X179936449Y-63244471D01*
X179834650Y-63161343D01*
X179573129Y-63037056D01*
X179342991Y-62947742D01*
X179011666Y-62814492D01*
X178796253Y-62700789D01*
X178749533Y-62652087D01*
X178646691Y-62573169D01*
X178389726Y-62475918D01*
X178285054Y-62445860D01*
X177980889Y-62379015D01*
X177819195Y-62406997D01*
X177717141Y-62549874D01*
X177699450Y-62587723D01*
X177568992Y-62811764D01*
X177339426Y-63151679D01*
X177058577Y-63536899D01*
X177036359Y-63566203D01*
X176775877Y-63919816D01*
X176583870Y-64201630D01*
X176496308Y-64358400D01*
X176494393Y-64368457D01*
X176427576Y-64497628D01*
X176248964Y-64766734D01*
X175991316Y-65127415D01*
X175863740Y-65299481D01*
X175493035Y-65804905D01*
X175260748Y-66156644D01*
X175154894Y-66384670D01*
X174903818Y-66384670D01*
X174941286Y-66325501D01*
X174951402Y-66248850D01*
X175047309Y-66057123D01*
X175129439Y-66005773D01*
X175286595Y-65885344D01*
X175307477Y-65824340D01*
X175378421Y-65668680D01*
X175573546Y-65367796D01*
X175866290Y-64959841D01*
X176230088Y-64482969D01*
X176326600Y-64360514D01*
X176522328Y-64058412D01*
X176620392Y-63856075D01*
X176745987Y-63650325D01*
X176847530Y-63589019D01*
X176963517Y-63497176D01*
X176969159Y-63457735D01*
X177037926Y-63293590D01*
X177212446Y-63026066D01*
X177325234Y-62876869D01*
X177534438Y-62591094D01*
X177662482Y-62374488D01*
X177681309Y-62314659D01*
X177646012Y-62278889D01*
X178037383Y-62278889D01*
X178358261Y-62359424D01*
X178584638Y-62442703D01*
X178969413Y-62611478D01*
X179460304Y-62841857D01*
X180005033Y-63109946D01*
X180049616Y-63132430D01*
X181420094Y-63824902D01*
X193318925Y-63825652D01*
X205217757Y-63826402D01*
X205217757Y-63765121D01*
X205455140Y-63765121D01*
X205457780Y-65724500D01*
X205461247Y-66461020D01*
X205472075Y-66999271D01*
X205494331Y-67378342D01*
X205532081Y-67637325D01*
X205589394Y-67815308D01*
X205670337Y-67951384D01*
X205692524Y-67980608D01*
X205876933Y-68379235D01*
X205927268Y-68775720D01*
X205929907Y-69274102D01*
X206315654Y-69107355D01*
X206575042Y-68985318D01*
X206984635Y-68781378D01*
X207485217Y-68525402D01*
X207947664Y-68284145D01*
X208502317Y-67993209D01*
X209039335Y-67713654D01*
X209490181Y-67481044D01*
X209743623Y-67352221D01*
X210293321Y-67076760D01*
X209954526Y-66668170D01*
X209746980Y-66387596D01*
X209625413Y-66164854D01*
X209612539Y-66111215D01*
X209530043Y-65973277D01*
X209483650Y-65962851D01*
X209433300Y-65933285D01*
X209619788Y-65933285D01*
X209996042Y-66422834D01*
X210225611Y-66699935D01*
X210404508Y-66877387D01*
X210466169Y-66912383D01*
X210618004Y-66863544D01*
X210905464Y-66738364D01*
X211123246Y-66634180D01*
X211846876Y-66264126D01*
X212361115Y-65972590D01*
X212660052Y-65762934D01*
X212668717Y-65755140D01*
X212859113Y-65628127D01*
X212937186Y-65606776D01*
X212950240Y-65518008D01*
X212856217Y-65295271D01*
X212798292Y-65191355D01*
X212623571Y-64930463D01*
X212486488Y-64786082D01*
X212460063Y-64775935D01*
X212357878Y-64677181D01*
X212285762Y-64508879D01*
X212204764Y-64351230D01*
X212143336Y-64390187D01*
X211998369Y-64527912D01*
X211942030Y-64538552D01*
X211775703Y-64600986D01*
X211483843Y-64763373D01*
X211185108Y-64953972D01*
X210855091Y-65170386D01*
X210609391Y-65320654D01*
X210509486Y-65369393D01*
X210383832Y-65430030D01*
X210139142Y-65582067D01*
X210035259Y-65651339D01*
X209619788Y-65933285D01*
X209433300Y-65933285D01*
X209399136Y-65913224D01*
X209482393Y-65792378D01*
X209692575Y-65642365D01*
X209890892Y-65543565D01*
X210235635Y-65364681D01*
X210608327Y-65126393D01*
X210670957Y-65080909D01*
X210957643Y-64891304D01*
X211182160Y-64784548D01*
X211228844Y-64775935D01*
X211420649Y-64687010D01*
X211472841Y-64625071D01*
X211710982Y-64407905D01*
X212027867Y-64297575D01*
X212318257Y-64325315D01*
X212374399Y-64357497D01*
X212541288Y-64522657D01*
X212581459Y-64610982D01*
X212655725Y-64759885D01*
X212835776Y-65005135D01*
X212912659Y-65097730D01*
X213177386Y-65351879D01*
X213404263Y-65424934D01*
X213501293Y-65410289D01*
X213706317Y-65326480D01*
X213763552Y-65261876D01*
X213863217Y-65175730D01*
X214122076Y-65032819D01*
X214416355Y-64894626D01*
X214762002Y-64729960D01*
X214998656Y-64593341D01*
X215069159Y-64525454D01*
X215170941Y-64443213D01*
X215432423Y-64319510D01*
X215662617Y-64230296D01*
X215993958Y-64096854D01*
X216209371Y-63982674D01*
X216256075Y-63933567D01*
X216357873Y-63850439D01*
X216619395Y-63726152D01*
X216849533Y-63636838D01*
X217181061Y-63501264D01*
X217396465Y-63381787D01*
X217442991Y-63328189D01*
X217537352Y-63237840D01*
X217591355Y-63230314D01*
X217713671Y-63148876D01*
X217977664Y-62921578D01*
X217997793Y-62903077D01*
X218304350Y-62903077D01*
X218316438Y-63043392D01*
X218502985Y-63103500D01*
X218867062Y-63102597D01*
X219411743Y-63059877D01*
X220140102Y-62994538D01*
X220232243Y-62986737D01*
X220832563Y-62930466D01*
X221362750Y-62869691D01*
X221769432Y-62811294D01*
X221999239Y-62762159D01*
X222012617Y-62757119D01*
X222094027Y-62726536D01*
X222199137Y-62698943D01*
X222352230Y-62672054D01*
X222577591Y-62643581D01*
X222899502Y-62611237D01*
X223342247Y-62572733D01*
X223930111Y-62525783D01*
X224687377Y-62468099D01*
X225638328Y-62397395D01*
X226522897Y-62332267D01*
X227010854Y-62287888D01*
X227410851Y-62235697D01*
X227661930Y-62184335D01*
X227709813Y-62164006D01*
X227857973Y-62129212D01*
X228207535Y-62081305D01*
X228723120Y-62024071D01*
X229369349Y-61961294D01*
X230110844Y-61896761D01*
X230499066Y-61865580D01*
X231273978Y-61801054D01*
X231970582Y-61735472D01*
X232553595Y-61672775D01*
X232987738Y-61616903D01*
X233237728Y-61571795D01*
X233282383Y-61554748D01*
X233457905Y-61496542D01*
X233783374Y-61459538D01*
X234015728Y-61452570D01*
X234358618Y-61439744D01*
X234615977Y-61377588D01*
X234793991Y-61253771D01*
X235136980Y-61253771D01*
X235242439Y-61288207D01*
X235532909Y-61299805D01*
X235957043Y-61287753D01*
X236225935Y-61270954D01*
X236812531Y-61214659D01*
X237198631Y-61143203D01*
X237405621Y-61055038D01*
X237739253Y-61055038D01*
X237845444Y-61079773D01*
X238114092Y-61094602D01*
X238273365Y-61096496D01*
X238591897Y-61072921D01*
X238782969Y-61013275D01*
X238807477Y-60977804D01*
X238914535Y-60911078D01*
X239189525Y-60866945D01*
X239430608Y-60856726D01*
X239836039Y-60840774D01*
X240310919Y-60801033D01*
X240791330Y-60745657D01*
X241213353Y-60682800D01*
X241513070Y-60620619D01*
X241621473Y-60577204D01*
X241605716Y-60447951D01*
X241505791Y-60170236D01*
X241366137Y-59853719D01*
X241097850Y-59286605D01*
X241260523Y-59286605D01*
X241264992Y-59313760D01*
X241348860Y-59507184D01*
X241408691Y-59553505D01*
X241497382Y-59653438D01*
X241614090Y-59900565D01*
X241639914Y-59968926D01*
X241759527Y-60238621D01*
X241864819Y-60378764D01*
X241881819Y-60384346D01*
X242017826Y-60319884D01*
X242286910Y-60150758D01*
X242631223Y-59913363D01*
X242636509Y-59909580D01*
X242977705Y-59671980D01*
X243240155Y-59501695D01*
X243368125Y-59434847D01*
X243369008Y-59434813D01*
X243496987Y-59370814D01*
X243748062Y-59207165D01*
X243930051Y-59078739D01*
X244243181Y-58873316D01*
X244496143Y-58744664D01*
X244581827Y-58722664D01*
X244727962Y-58650309D01*
X244742056Y-58600247D01*
X244838519Y-58462444D01*
X244949767Y-58403426D01*
X245157869Y-58294968D01*
X245473803Y-58094471D01*
X245715234Y-57926701D01*
X246023842Y-57695943D01*
X246166680Y-57547890D01*
X246173322Y-57430369D01*
X246074603Y-57292681D01*
X245880444Y-57116368D01*
X245753850Y-57060982D01*
X245598015Y-56996573D01*
X245318658Y-56829519D01*
X245047186Y-56645561D01*
X244699295Y-56421882D01*
X244401021Y-56271068D01*
X244252786Y-56230140D01*
X244102570Y-56310842D01*
X243819539Y-56534277D01*
X243435802Y-56872441D01*
X242983468Y-57297329D01*
X242622491Y-57652078D01*
X242075215Y-58208076D01*
X241684132Y-58626574D01*
X241430490Y-58930526D01*
X241295537Y-59142885D01*
X241260523Y-59286605D01*
X241097850Y-59286605D01*
X241051791Y-59189245D01*
X239844828Y-59223011D01*
X238637865Y-59256776D01*
X238188559Y-60135178D01*
X237982678Y-60542317D01*
X237826435Y-60860126D01*
X237745245Y-61036573D01*
X237739253Y-61055038D01*
X237405621Y-61055038D01*
X237421018Y-61048480D01*
X237478372Y-60994988D01*
X237606412Y-60796669D01*
X237800199Y-60455456D01*
X238020218Y-60041224D01*
X238044288Y-59994275D01*
X238455663Y-59188783D01*
X237301792Y-59222779D01*
X236147920Y-59256776D01*
X235646921Y-60206309D01*
X235423949Y-60637344D01*
X235249868Y-60989863D01*
X235150499Y-61210832D01*
X235136980Y-61253771D01*
X234793991Y-61253771D01*
X234827322Y-61230588D01*
X235032173Y-60963229D01*
X235270046Y-60539996D01*
X235470976Y-60144742D01*
X235945121Y-59197430D01*
X227404167Y-59197430D01*
X225825741Y-60799767D01*
X225326492Y-61301110D01*
X224880837Y-61738298D01*
X224516431Y-62085035D01*
X224260931Y-62315025D01*
X224141992Y-62401972D01*
X224140494Y-62402103D01*
X224186391Y-62322954D01*
X224377484Y-62102488D01*
X224690051Y-61766176D01*
X225100372Y-61339488D01*
X225584728Y-60847896D01*
X225632710Y-60799767D01*
X227231749Y-59197430D01*
X221889757Y-59197430D01*
X219939104Y-61155841D01*
X219284096Y-61808938D01*
X218791252Y-62305046D01*
X218463645Y-62663360D01*
X218304350Y-62903077D01*
X217997793Y-62903077D01*
X218358396Y-62571644D01*
X218830930Y-62122302D01*
X219370327Y-61596777D01*
X219757477Y-61212858D01*
X221775234Y-59198032D01*
X219734809Y-59197731D01*
X219063219Y-59192120D01*
X218477407Y-59176757D01*
X218017253Y-59153534D01*
X217722631Y-59124346D01*
X217632885Y-59097924D01*
X217502617Y-59063099D01*
X217167330Y-59016230D01*
X216658895Y-58960554D01*
X216009183Y-58899307D01*
X215250066Y-58835725D01*
X214480553Y-58777814D01*
X213652810Y-58715243D01*
X212908751Y-58652296D01*
X212279420Y-58592148D01*
X211795858Y-58537970D01*
X211489110Y-58492937D01*
X211389720Y-58461900D01*
X211289006Y-58387371D01*
X211123611Y-58366589D01*
X210979545Y-58428390D01*
X210722427Y-58619437D01*
X210342951Y-58948193D01*
X209831814Y-59423122D01*
X209179710Y-60052689D01*
X208377335Y-60845358D01*
X208156321Y-61065855D01*
X205455140Y-63765121D01*
X205217757Y-63765121D01*
X205217757Y-63646294D01*
X205455140Y-63646294D01*
X208007010Y-61096496D01*
X208643330Y-60458208D01*
X209221712Y-59873265D01*
X209721661Y-59362773D01*
X210122684Y-58947841D01*
X210404284Y-58649575D01*
X210545969Y-58489083D01*
X210558879Y-58468297D01*
X210451321Y-58414902D01*
X210171180Y-58354022D01*
X209831850Y-58305516D01*
X209104821Y-58221136D01*
X207279981Y-60043127D01*
X205455140Y-61865119D01*
X205455140Y-63646294D01*
X205217757Y-63646294D01*
X205217757Y-61918039D01*
X207116823Y-60017310D01*
X207746491Y-59382742D01*
X208224153Y-58889226D01*
X208569292Y-58513672D01*
X208801390Y-58232993D01*
X208939931Y-58024099D01*
X209004399Y-57863903D01*
X209015888Y-57766819D01*
X209015888Y-57417056D01*
X206052767Y-57417056D01*
X205516570Y-56903290D01*
X204980374Y-56389524D01*
X204980374Y-56132867D01*
X205099066Y-56132867D01*
X205425467Y-56592112D01*
X205656084Y-56876648D01*
X205862608Y-57066229D01*
X205929907Y-57101747D01*
X206112986Y-57122344D01*
X206480335Y-57141284D01*
X206978838Y-57156479D01*
X207555382Y-57165842D01*
X207561916Y-57165905D01*
X209015888Y-57179673D01*
X209015888Y-55458645D01*
X209134580Y-55458645D01*
X209161134Y-55744962D01*
X209264798Y-55860487D01*
X209371963Y-55874066D01*
X209535572Y-55827596D01*
X209601586Y-55646184D01*
X209609346Y-55458645D01*
X209582792Y-55172329D01*
X209479128Y-55056804D01*
X209371963Y-55043225D01*
X209208353Y-55089694D01*
X209142339Y-55271106D01*
X209134580Y-55458645D01*
X209015888Y-55458645D01*
X209015888Y-51533120D01*
X209134580Y-51533120D01*
X209159217Y-51822012D01*
X209257913Y-51940779D01*
X209379483Y-51957243D01*
X209546138Y-51917944D01*
X209597023Y-51755375D01*
X209587193Y-51572468D01*
X209493809Y-51254157D01*
X209342290Y-51148344D01*
X209200863Y-51168901D01*
X209142111Y-51338971D01*
X209134580Y-51533120D01*
X209015888Y-51533120D01*
X209015888Y-49820795D01*
X206011843Y-49820795D01*
X205555454Y-50300559D01*
X205099066Y-50780323D01*
X205099066Y-56132867D01*
X204980374Y-56132867D01*
X204980374Y-50610944D01*
X205516570Y-50097178D01*
X206052767Y-49583412D01*
X209015888Y-49583412D01*
X209015888Y-49233649D01*
X208992280Y-49094050D01*
X208941515Y-48989954D01*
X209124979Y-48989954D01*
X209159452Y-49969159D01*
X209181115Y-50451620D01*
X209214107Y-50746068D01*
X209273059Y-50901851D01*
X209372600Y-50968316D01*
X209460982Y-50986293D01*
X209621975Y-51037569D01*
X209701392Y-51174357D01*
X209726802Y-51460983D01*
X209728038Y-51609424D01*
X209718098Y-51958548D01*
X209667627Y-52131575D01*
X209545647Y-52189596D01*
X209431309Y-52194626D01*
X209134580Y-52194626D01*
X209134580Y-54805841D01*
X209431309Y-54805841D01*
X209608333Y-54825445D01*
X209696067Y-54924982D01*
X209725487Y-55165548D01*
X209728038Y-55391044D01*
X209715072Y-55745673D01*
X209657796Y-55927835D01*
X209528642Y-56001858D01*
X209460982Y-56014175D01*
X209331344Y-56048851D01*
X209249586Y-56140124D01*
X209202008Y-56336241D01*
X209174913Y-56685448D01*
X209159863Y-57074781D01*
X209125801Y-58097459D01*
X209693975Y-58166871D01*
X210002384Y-58198263D01*
X210494686Y-58241013D01*
X211117905Y-58290842D01*
X211819068Y-58343474D01*
X212339253Y-58380482D01*
X213016308Y-58431695D01*
X213607849Y-58484438D01*
X214074542Y-58534556D01*
X214377050Y-58577890D01*
X214475701Y-58606275D01*
X214622643Y-58654851D01*
X214972695Y-58705699D01*
X215491623Y-58756640D01*
X216145195Y-58805499D01*
X216899179Y-58850097D01*
X217719343Y-58888257D01*
X218571454Y-58917803D01*
X219421279Y-58936556D01*
X219727804Y-58940319D01*
X221834580Y-58960047D01*
X222071963Y-58960047D01*
X227531776Y-58960047D01*
X227531776Y-57179673D01*
X222071963Y-57179673D01*
X222071963Y-58960047D01*
X221834580Y-58960047D01*
X221834580Y-58082559D01*
X221845815Y-57604306D01*
X221885744Y-57315442D01*
X221963698Y-57168763D01*
X222022324Y-57133026D01*
X222215084Y-57102875D01*
X222585512Y-57078924D01*
X223073913Y-57064193D01*
X223446624Y-57060982D01*
X224683178Y-57060982D01*
X224683178Y-57053207D01*
X224920561Y-57053207D01*
X226255841Y-57086767D01*
X227591122Y-57120327D01*
X227625787Y-58040187D01*
X227660453Y-58960047D01*
X236077570Y-58960047D01*
X236314953Y-58960047D01*
X237514568Y-58960047D01*
X238807477Y-58960047D01*
X241111885Y-58960047D01*
X244148598Y-55923334D01*
X244148598Y-53585117D01*
X244148985Y-53500234D01*
X244207944Y-53500234D01*
X244213387Y-54450244D01*
X244229900Y-55168505D01*
X244257758Y-55660403D01*
X244297236Y-55931327D01*
X244335165Y-55992757D01*
X244497759Y-56059579D01*
X244768186Y-56229517D01*
X244928623Y-56345530D01*
X245228002Y-56552542D01*
X245463526Y-56681155D01*
X245534747Y-56701605D01*
X245732223Y-56781190D01*
X245831475Y-56860959D01*
X246068418Y-57051460D01*
X246343235Y-57217223D01*
X246549424Y-57294400D01*
X246555070Y-57294756D01*
X246639865Y-57195048D01*
X246716814Y-56949482D01*
X246718271Y-56942290D01*
X246798058Y-56692889D01*
X246891504Y-56586270D01*
X246893341Y-56586215D01*
X246921202Y-56472721D01*
X246946240Y-56153012D01*
X246967404Y-55658253D01*
X246983647Y-55019604D01*
X246993920Y-54268229D01*
X246997196Y-53500234D01*
X246992695Y-52473776D01*
X246979437Y-51643355D01*
X246957792Y-51018577D01*
X246928130Y-50609049D01*
X246890820Y-50424377D01*
X246878505Y-50414253D01*
X246776963Y-50316195D01*
X246757996Y-50206542D01*
X246695412Y-49923379D01*
X246648190Y-49828167D01*
X246549070Y-49745202D01*
X246388230Y-49783201D01*
X246107720Y-49957291D01*
X246079843Y-49976532D01*
X245784147Y-50166765D01*
X245563197Y-50282696D01*
X245507172Y-50298863D01*
X245353701Y-50367373D01*
X245089341Y-50537960D01*
X244928623Y-50654938D01*
X244632305Y-50860910D01*
X244403058Y-50987997D01*
X244335165Y-51007711D01*
X244286676Y-51114355D01*
X244250015Y-51437881D01*
X244224908Y-51983675D01*
X244211080Y-52757126D01*
X244207944Y-53500234D01*
X244148985Y-53500234D01*
X244152217Y-52790355D01*
X244151408Y-52187583D01*
X244128675Y-51731766D01*
X244066521Y-51377870D01*
X243947449Y-51080862D01*
X243753961Y-50795708D01*
X243468562Y-50477374D01*
X243073755Y-50080826D01*
X242606414Y-49615808D01*
X242055007Y-49064591D01*
X241631619Y-48659761D01*
X241297541Y-48378730D01*
X241014064Y-48198908D01*
X240742481Y-48097707D01*
X240444084Y-48052537D01*
X240080165Y-48040808D01*
X239906869Y-48040421D01*
X239407368Y-48049968D01*
X239098683Y-48084214D01*
X238934807Y-48151567D01*
X238879521Y-48228166D01*
X238864527Y-48382855D01*
X238850590Y-48749939D01*
X238838039Y-49304430D01*
X238827203Y-50021339D01*
X238818413Y-50875679D01*
X238811998Y-51842463D01*
X238808288Y-52896702D01*
X238807477Y-53687979D01*
X238807477Y-58960047D01*
X237514568Y-58960047D01*
X238059589Y-58955798D01*
X238405562Y-58938805D01*
X238590737Y-58902698D01*
X238653364Y-58841111D01*
X238642138Y-58772302D01*
X238626977Y-58617201D01*
X238612900Y-58250019D01*
X238600250Y-57696056D01*
X238589366Y-56980615D01*
X238580592Y-56128994D01*
X238574267Y-55166496D01*
X238570733Y-54118421D01*
X238570094Y-53431181D01*
X238570094Y-48277804D01*
X236314953Y-48277804D01*
X236314953Y-58960047D01*
X236077570Y-58960047D01*
X236077570Y-48040421D01*
X227783704Y-48040421D01*
X227717517Y-48544860D01*
X227666217Y-48982541D01*
X227625758Y-49405727D01*
X227621226Y-49464720D01*
X227591122Y-49880140D01*
X226255841Y-49913701D01*
X224920561Y-49947261D01*
X224920561Y-57053207D01*
X224683178Y-57053207D01*
X224683178Y-49939486D01*
X223446624Y-49939486D01*
X222911783Y-49932833D01*
X222453929Y-49914888D01*
X222132754Y-49888669D01*
X222022324Y-49867442D01*
X221970301Y-49820795D01*
X222071963Y-49820795D01*
X227531776Y-49820795D01*
X227531776Y-48040421D01*
X222071963Y-48040421D01*
X222071963Y-49820795D01*
X221970301Y-49820795D01*
X221921894Y-49777390D01*
X221863460Y-49571465D01*
X221837915Y-49202728D01*
X221834580Y-48899796D01*
X221834580Y-48004194D01*
X219028850Y-48071637D01*
X218236108Y-48094989D01*
X217524057Y-48124166D01*
X216926511Y-48157111D01*
X216477282Y-48191768D01*
X216210184Y-48226079D01*
X216150579Y-48246694D01*
X216017086Y-48283920D01*
X215679065Y-48332732D01*
X215168902Y-48389772D01*
X214518980Y-48451679D01*
X213761685Y-48515096D01*
X213051402Y-48568128D01*
X212225150Y-48630121D01*
X211476033Y-48693237D01*
X210837002Y-48754140D01*
X210341008Y-48809494D01*
X210020999Y-48855964D01*
X209912010Y-48885951D01*
X209718476Y-48962723D01*
X209462116Y-48989954D01*
X209124979Y-48989954D01*
X208941515Y-48989954D01*
X208908468Y-48922191D01*
X208744968Y-48694981D01*
X208482297Y-48389333D01*
X208100973Y-47982159D01*
X207581511Y-47450369D01*
X207116823Y-46983157D01*
X205217757Y-45082429D01*
X205217769Y-44039229D01*
X205217780Y-42996028D01*
X181795386Y-43058814D01*
X180183441Y-43841489D01*
X179597036Y-44125968D01*
X179068519Y-44381908D01*
X178643240Y-44587379D01*
X178366551Y-44720455D01*
X178304439Y-44750012D01*
X178037383Y-44875861D01*
X178037383Y-62278889D01*
X177646012Y-62278889D01*
X177582419Y-62214444D01*
X177317739Y-62041136D01*
X176935251Y-61824848D01*
X176730630Y-61718029D01*
X175779952Y-61234029D01*
X175484369Y-61621559D01*
X175299006Y-61881802D01*
X175196164Y-62059636D01*
X175188785Y-62086475D01*
X175124242Y-62211920D01*
X174952023Y-62480029D01*
X174704242Y-62841608D01*
X174595327Y-62995561D01*
X174327323Y-63377855D01*
X174122278Y-63683098D01*
X174012172Y-63863143D01*
X174001869Y-63889038D01*
X173941216Y-64008351D01*
X173786470Y-64260489D01*
X173578451Y-64582956D01*
X173357980Y-64913260D01*
X173165878Y-65188905D01*
X173068798Y-65317523D01*
X172939970Y-65507999D01*
X172800284Y-65754364D01*
X172707427Y-65951672D01*
X172696262Y-65995268D01*
X171899143Y-65995268D01*
X171540063Y-65923569D01*
X171104974Y-65825162D01*
X170806495Y-65744770D01*
X170737851Y-65720007D01*
X170520149Y-65655387D01*
X170133715Y-65568828D01*
X169644446Y-65474462D01*
X169372897Y-65427272D01*
X168861884Y-65334299D01*
X168425221Y-65240994D01*
X168126291Y-65161552D01*
X168045380Y-65129926D01*
X167791939Y-65043157D01*
X167324945Y-64937456D01*
X166667059Y-64817387D01*
X165871496Y-64692036D01*
X165557867Y-64628650D01*
X165360199Y-64557254D01*
X165337383Y-64538337D01*
X165202191Y-64483344D01*
X164886109Y-64402557D01*
X164442488Y-64308690D01*
X164120795Y-64248429D01*
X163632191Y-64152427D01*
X163245599Y-64059761D01*
X163010947Y-63983370D01*
X162963552Y-63948523D01*
X162955524Y-63939815D01*
X163378972Y-63939815D01*
X163705374Y-63942455D01*
X163942306Y-63981633D01*
X164031776Y-64063785D01*
X164131921Y-64157892D01*
X164286989Y-64182477D01*
X164559615Y-64207607D01*
X164981953Y-64273222D01*
X165479450Y-64364662D01*
X165977555Y-64467268D01*
X166401715Y-64566378D01*
X166677379Y-64647331D01*
X166702337Y-64657449D01*
X166917385Y-64721274D01*
X167303526Y-64808587D01*
X167797392Y-64905734D01*
X168126636Y-64964358D01*
X168630169Y-65057057D01*
X169040183Y-65145075D01*
X169303996Y-65216381D01*
X169372897Y-65249041D01*
X169507367Y-65300937D01*
X169825881Y-65378401D01*
X170277977Y-65470171D01*
X170713601Y-65548303D01*
X171237963Y-65644872D01*
X171670330Y-65738839D01*
X171960125Y-65818299D01*
X172055886Y-65864269D01*
X172225213Y-65964286D01*
X172424837Y-65901075D01*
X172543180Y-65725468D01*
X172638708Y-65533018D01*
X172713830Y-65488084D01*
X172839760Y-65391907D01*
X172896808Y-65280374D01*
X173005538Y-65071495D01*
X173205800Y-64755838D01*
X173367850Y-64522650D01*
X173584900Y-64199927D01*
X173728968Y-63944059D01*
X173764486Y-63840173D01*
X173849472Y-63714081D01*
X173886903Y-63707711D01*
X174025283Y-63611381D01*
X174085178Y-63500000D01*
X174187725Y-63307155D01*
X174390062Y-62985810D01*
X174652031Y-62599207D01*
X174704584Y-62524511D01*
X175016114Y-62071514D01*
X175279208Y-61664909D01*
X175464821Y-61351543D01*
X175543907Y-61178263D01*
X175544860Y-61169265D01*
X175521550Y-61149290D01*
X175435060Y-61100674D01*
X175260548Y-61011066D01*
X174973176Y-60868117D01*
X174548102Y-60659478D01*
X173960485Y-60372799D01*
X173185485Y-59995730D01*
X173134573Y-59970978D01*
X172505417Y-59667483D01*
X172049653Y-59457345D01*
X171728223Y-59328018D01*
X171502068Y-59266954D01*
X171332129Y-59261609D01*
X171179349Y-59299437D01*
X171116816Y-59322854D01*
X170821969Y-59461736D01*
X170625048Y-59595332D01*
X170619159Y-59601501D01*
X170440975Y-59738617D01*
X170151940Y-59911771D01*
X170085047Y-59947379D01*
X169266541Y-60388877D01*
X168649509Y-60757574D01*
X168604847Y-60786595D01*
X168304300Y-60971593D01*
X167924217Y-61190755D01*
X167795351Y-61262004D01*
X167385027Y-61485622D01*
X166977477Y-61707632D01*
X166880374Y-61760507D01*
X166588965Y-61942267D01*
X166392165Y-62106595D01*
X166370037Y-62135047D01*
X166206446Y-62270392D01*
X166144939Y-62283412D01*
X165983955Y-62345099D01*
X165694864Y-62505714D01*
X165388900Y-62698832D01*
X165042786Y-62915934D01*
X164766723Y-63066275D01*
X164634792Y-63114253D01*
X164511824Y-63190076D01*
X164506542Y-63220077D01*
X164406983Y-63329135D01*
X164239486Y-63397761D01*
X163950414Y-63524870D01*
X163675701Y-63704718D01*
X163378972Y-63939815D01*
X162955524Y-63939815D01*
X162865993Y-63842698D01*
X162630791Y-63717379D01*
X162625390Y-63715130D01*
X162444313Y-63591546D01*
X162127372Y-63324330D01*
X161703889Y-62940334D01*
X161203184Y-62466409D01*
X160654580Y-61929408D01*
X160429595Y-61704271D01*
X158571963Y-59833483D01*
X158571963Y-59513101D01*
X160625465Y-59513101D01*
X160648732Y-59753206D01*
X160796650Y-60038244D01*
X160811220Y-60061918D01*
X161081083Y-60417352D01*
X161488612Y-60858832D01*
X161978464Y-61335395D01*
X162495297Y-61796076D01*
X162983767Y-62189912D01*
X163388530Y-62465937D01*
X163470409Y-62510692D01*
X164035312Y-62797317D01*
X163482382Y-63190437D01*
X163116875Y-63452790D01*
X162922162Y-63606929D01*
X162875163Y-63681624D01*
X162952800Y-63705643D01*
X163067424Y-63707711D01*
X163353178Y-63628748D01*
X163565053Y-63488309D01*
X163832543Y-63307837D01*
X164194070Y-63140844D01*
X164272239Y-63113236D01*
X164563896Y-62995840D01*
X164729593Y-62888162D01*
X164743925Y-62859465D01*
X164840169Y-62748402D01*
X165077036Y-62601664D01*
X165129673Y-62575368D01*
X165764220Y-62245829D01*
X166484415Y-61823570D01*
X166701790Y-61689137D01*
X167100088Y-61451113D01*
X167501715Y-61226635D01*
X167591977Y-61179193D01*
X168195428Y-60859755D01*
X168622889Y-60613830D01*
X168856850Y-60451684D01*
X168887699Y-60419564D01*
X169029275Y-60312462D01*
X169303203Y-60154512D01*
X169432243Y-60087903D01*
X169761296Y-59908263D01*
X170013087Y-59744184D01*
X170063852Y-59702156D01*
X170254284Y-59574065D01*
X170332573Y-59553505D01*
X170495274Y-59493692D01*
X170764522Y-59344448D01*
X170856738Y-59286449D01*
X171269024Y-59019393D01*
X171270494Y-57684112D01*
X171270499Y-57679437D01*
X171509346Y-57679437D01*
X171516571Y-58287458D01*
X171556568Y-58708488D01*
X171656823Y-58992856D01*
X171844822Y-59190896D01*
X172148050Y-59352938D01*
X172499977Y-59493499D01*
X172817079Y-59629035D01*
X173016848Y-59742180D01*
X173052337Y-59783566D01*
X173154090Y-59864322D01*
X173415507Y-59987045D01*
X173645795Y-60076091D01*
X173977283Y-60211206D01*
X174192688Y-60329542D01*
X174239253Y-60382176D01*
X174342779Y-60465228D01*
X174603757Y-60566161D01*
X174743692Y-60606265D01*
X175098668Y-60714642D01*
X175372937Y-60825832D01*
X175426168Y-60855921D01*
X175624209Y-60958948D01*
X175693224Y-60975987D01*
X175708926Y-60860987D01*
X175723745Y-60528790D01*
X175737436Y-59999577D01*
X175749755Y-59293534D01*
X175760457Y-58430844D01*
X175769299Y-57431691D01*
X175776035Y-56316259D01*
X175780421Y-55104731D01*
X175782213Y-53817292D01*
X175782243Y-53625930D01*
X175780308Y-51928934D01*
X175774542Y-50444494D01*
X175773515Y-50307935D01*
X175900949Y-50307935D01*
X175902624Y-51558730D01*
X175904782Y-53022919D01*
X175905277Y-53615631D01*
X175909618Y-61155841D01*
X176825136Y-61597356D01*
X177241883Y-61797170D01*
X177566825Y-61950767D01*
X177748992Y-62034147D01*
X177770327Y-62042449D01*
X177775207Y-61927489D01*
X177779837Y-61593928D01*
X177784151Y-61060547D01*
X177788084Y-60346130D01*
X177791569Y-59469457D01*
X177794541Y-58449311D01*
X177796935Y-57304473D01*
X177798684Y-56053726D01*
X177799724Y-54715852D01*
X177800000Y-53559580D01*
X177799550Y-51920803D01*
X177797982Y-50503757D01*
X177794967Y-49292790D01*
X177790177Y-48272250D01*
X177783284Y-47426487D01*
X177773958Y-46739850D01*
X177761873Y-46196686D01*
X177746698Y-45781344D01*
X177728108Y-45478173D01*
X177705771Y-45271522D01*
X177679361Y-45145740D01*
X177648550Y-45085174D01*
X177621963Y-45073131D01*
X177463535Y-45121424D01*
X177443481Y-45162150D01*
X177343176Y-45254029D01*
X177087135Y-45391521D01*
X176885431Y-45480537D01*
X176688373Y-45554400D01*
X176519290Y-45613486D01*
X176376068Y-45675347D01*
X176256592Y-45757534D01*
X176158748Y-45877599D01*
X176080419Y-46053094D01*
X176019493Y-46301570D01*
X175973854Y-46640580D01*
X175941387Y-47087674D01*
X175919978Y-47660405D01*
X175907512Y-48376325D01*
X175901874Y-49252984D01*
X175900949Y-50307935D01*
X175773515Y-50307935D01*
X175765000Y-49176159D01*
X175751741Y-48127473D01*
X175734821Y-47301985D01*
X175714297Y-46703238D01*
X175690227Y-46334781D01*
X175662860Y-46200274D01*
X175493619Y-46194797D01*
X175203382Y-46254241D01*
X174889832Y-46351173D01*
X174650653Y-46458161D01*
X174595327Y-46500073D01*
X174459868Y-46580542D01*
X174181902Y-46714226D01*
X174001869Y-46794159D01*
X173679191Y-46941217D01*
X173458194Y-47056069D01*
X173408411Y-47090888D01*
X173272908Y-47172921D01*
X172994857Y-47307594D01*
X172814953Y-47387617D01*
X172492293Y-47534504D01*
X172271297Y-47648940D01*
X172221496Y-47683486D01*
X172079708Y-47773697D01*
X171835748Y-47891928D01*
X171509346Y-48035332D01*
X171509346Y-50548885D01*
X171924767Y-50940677D01*
X172340187Y-51332469D01*
X172340187Y-55667999D01*
X171924767Y-56059791D01*
X171509346Y-56451583D01*
X171509346Y-57679437D01*
X171270499Y-57679437D01*
X171271963Y-56348832D01*
X164743925Y-56348832D01*
X164743730Y-56675234D01*
X164637002Y-57028091D01*
X164355192Y-57381681D01*
X163955258Y-57686658D01*
X163494158Y-57893675D01*
X163281885Y-57941725D01*
X162943206Y-58010033D01*
X162715847Y-58088501D01*
X162671049Y-58122368D01*
X162526320Y-58197797D01*
X162231939Y-58273639D01*
X162080053Y-58300036D01*
X161474320Y-58438536D01*
X161060046Y-58656833D01*
X160797550Y-58980642D01*
X160711965Y-59186664D01*
X160625465Y-59513101D01*
X158571963Y-59513101D01*
X158571963Y-58202046D01*
X158576239Y-57506283D01*
X160114953Y-57506283D01*
X160125797Y-57692194D01*
X160200206Y-57719277D01*
X160401000Y-57600448D01*
X160441865Y-57573503D01*
X160731757Y-57383769D01*
X160956744Y-57239019D01*
X161160739Y-57101212D01*
X161466428Y-56885335D01*
X161634207Y-56764253D01*
X161922790Y-56537066D01*
X162068437Y-56337896D01*
X162112362Y-56111449D01*
X164743925Y-56111449D01*
X168163296Y-56111449D01*
X169196284Y-56109411D01*
X170016629Y-56102537D01*
X170649043Y-56089686D01*
X171118239Y-56069717D01*
X171448927Y-56041490D01*
X171665819Y-56003864D01*
X171793628Y-55955698D01*
X171813062Y-55942979D01*
X171893197Y-55869393D01*
X171952307Y-55760337D01*
X171993564Y-55582200D01*
X172020137Y-55301369D01*
X172035197Y-54884235D01*
X172041914Y-54297185D01*
X172043458Y-53506609D01*
X172043458Y-53500234D01*
X172041940Y-52708104D01*
X172035270Y-52119737D01*
X172020280Y-51701523D01*
X171993799Y-51419849D01*
X171952657Y-51241105D01*
X171893683Y-51131680D01*
X171813708Y-51057961D01*
X171813062Y-51057488D01*
X171702285Y-51006731D01*
X171508121Y-50966777D01*
X171205858Y-50936484D01*
X170770785Y-50914713D01*
X170178189Y-50900322D01*
X169403359Y-50892171D01*
X168421584Y-50889120D01*
X168163296Y-50889019D01*
X164743925Y-50889019D01*
X164743925Y-56111449D01*
X162112362Y-56111449D01*
X162120681Y-56068562D01*
X162128206Y-55785047D01*
X162132710Y-55161916D01*
X161375615Y-55161916D01*
X160960886Y-55169020D01*
X160719404Y-55206080D01*
X160587113Y-55296718D01*
X160499961Y-55464556D01*
X160490548Y-55488318D01*
X160387104Y-55833030D01*
X160279741Y-56314669D01*
X160186959Y-56833841D01*
X160127258Y-57291151D01*
X160114953Y-57506283D01*
X158576239Y-57506283D01*
X158576290Y-57497983D01*
X158596697Y-56983268D01*
X158644319Y-56609914D01*
X158730291Y-56329938D01*
X158865751Y-56095355D01*
X159061832Y-55858180D01*
X159134220Y-55779265D01*
X159398857Y-55490003D01*
X159580526Y-55257368D01*
X159694822Y-55027299D01*
X159724813Y-54892240D01*
X161592187Y-54892240D01*
X161746963Y-54915163D01*
X161967200Y-54852977D01*
X162012201Y-54716823D01*
X161977992Y-54595242D01*
X161923183Y-54639680D01*
X161738981Y-54798493D01*
X161657944Y-54838020D01*
X161592187Y-54892240D01*
X159724813Y-54892240D01*
X159757346Y-54745733D01*
X159777491Y-54449767D01*
X160708411Y-54449767D01*
X161218785Y-54449767D01*
X161568535Y-54418441D01*
X161825096Y-54340107D01*
X161871589Y-54307337D01*
X161949374Y-54117066D01*
X162001107Y-53774996D01*
X162014019Y-53476496D01*
X162014019Y-52788084D01*
X160708411Y-52788084D01*
X160708411Y-54449767D01*
X159777491Y-54449767D01*
X159783696Y-54358608D01*
X159789468Y-53811863D01*
X159789509Y-53508092D01*
X159786471Y-52852654D01*
X159765369Y-52380683D01*
X159716224Y-52086214D01*
X161573386Y-52086214D01*
X161598567Y-52151460D01*
X161724277Y-52250197D01*
X161926815Y-52395465D01*
X162002601Y-52398097D01*
X162014019Y-52258905D01*
X162014019Y-52253972D01*
X161913104Y-52109579D01*
X161753950Y-52075935D01*
X161573386Y-52086214D01*
X159716224Y-52086214D01*
X159708221Y-52038259D01*
X159597044Y-51771466D01*
X159413856Y-51526387D01*
X159140674Y-51249105D01*
X158987383Y-51103055D01*
X158631309Y-50765054D01*
X158597591Y-49193846D01*
X160151377Y-49193846D01*
X160165664Y-49719353D01*
X160222064Y-50309687D01*
X160311359Y-50882494D01*
X160424331Y-51355423D01*
X160493877Y-51544572D01*
X160589681Y-51706009D01*
X160733431Y-51794474D01*
X160989974Y-51831476D01*
X161380267Y-51838552D01*
X162132710Y-51838552D01*
X162132710Y-49125475D01*
X161469287Y-48987749D01*
X161045508Y-48864248D01*
X160690852Y-48699137D01*
X160553028Y-48597187D01*
X160300193Y-48344352D01*
X160188420Y-48815517D01*
X160151377Y-49193846D01*
X158597591Y-49193846D01*
X158592896Y-48975082D01*
X158554483Y-47185111D01*
X160373270Y-45351750D01*
X160942271Y-44789106D01*
X161490298Y-44267183D01*
X161983796Y-43816424D01*
X162389207Y-43467271D01*
X162672977Y-43250168D01*
X162726168Y-43217130D01*
X163111769Y-43046691D01*
X163626882Y-42880050D01*
X164165550Y-42751084D01*
X164209813Y-42742801D01*
X164687930Y-42648719D01*
X165097997Y-42555599D01*
X165365082Y-42480748D01*
X165396729Y-42468657D01*
X165698877Y-42375967D01*
X166215544Y-42260803D01*
X166925402Y-42127656D01*
X167399425Y-42046902D01*
X167750238Y-41970801D01*
X168021193Y-41881429D01*
X168052229Y-41866264D01*
X168249275Y-41801845D01*
X168618087Y-41715650D01*
X169095751Y-41621642D01*
X169372897Y-41573196D01*
X169889489Y-41480336D01*
X170337306Y-41387977D01*
X170650454Y-41310252D01*
X170737851Y-41280461D01*
X170957799Y-41212509D01*
X171343315Y-41119797D01*
X171826093Y-41018233D01*
X172043458Y-40976384D01*
X172546836Y-40876073D01*
X172981916Y-40778206D01*
X173280399Y-40698589D01*
X173349066Y-40674195D01*
X173566713Y-40610203D01*
X173953043Y-40523742D01*
X174442197Y-40428947D01*
X174714019Y-40381272D01*
X175230599Y-40286715D01*
X175678410Y-40191525D01*
X175991560Y-40110313D01*
X176078972Y-40078616D01*
X176312620Y-39999759D01*
X176696759Y-39900931D01*
X177147196Y-39803739D01*
X177978038Y-39641024D01*
X176722159Y-39627171D01*
X176162888Y-39623422D01*
X175793324Y-39633306D01*
X175565829Y-39666350D01*
X175432763Y-39732079D01*
X175346486Y-39840019D01*
X175307477Y-39910047D01*
X175148672Y-40206776D01*
X171959880Y-40206776D01*
X170976943Y-40206209D01*
X170200334Y-40201258D01*
X169599000Y-40187049D01*
X169141887Y-40158704D01*
X168797939Y-40111351D01*
X168536104Y-40040113D01*
X168325328Y-39940114D01*
X168134555Y-39806481D01*
X167932733Y-39634337D01*
X167851092Y-39561733D01*
X167837825Y-39553972D01*
X180188803Y-39553972D01*
X180982486Y-41181212D01*
X181776168Y-42808452D01*
X193496963Y-42813221D01*
X205217757Y-42817991D01*
X205217757Y-40437154D01*
X205213890Y-39576525D01*
X205201561Y-38934695D01*
X205179683Y-38493195D01*
X205147164Y-38233555D01*
X205102917Y-38137307D01*
X205082275Y-38140050D01*
X204939271Y-38156565D01*
X204583001Y-38170920D01*
X204037575Y-38182865D01*
X203327102Y-38192152D01*
X202475692Y-38198531D01*
X201507456Y-38201753D01*
X200446501Y-38201569D01*
X199444425Y-38198341D01*
X193942056Y-38172899D01*
X193942056Y-38708341D01*
X193925684Y-39024205D01*
X193855881Y-39256985D01*
X193701616Y-39419097D01*
X193431859Y-39522957D01*
X193015581Y-39580980D01*
X192421750Y-39605582D01*
X191690179Y-39609369D01*
X190897600Y-39604699D01*
X190311705Y-39578018D01*
X189901816Y-39504097D01*
X189637257Y-39357705D01*
X189487349Y-39113612D01*
X189421416Y-38746588D01*
X189408780Y-38231402D01*
X189415723Y-37738770D01*
X189439051Y-37029722D01*
X189485184Y-36517159D01*
X189559065Y-36160854D01*
X189631921Y-35979048D01*
X189763190Y-35689698D01*
X189788951Y-35484464D01*
X189683364Y-35349201D01*
X189420592Y-35269763D01*
X188974796Y-35232005D01*
X188320139Y-35221782D01*
X188248585Y-35221729D01*
X187633597Y-35226176D01*
X187219601Y-35242531D01*
X186970321Y-35275317D01*
X186849483Y-35329056D01*
X186820561Y-35399767D01*
X186753481Y-35559261D01*
X186615490Y-35539001D01*
X186534819Y-35429440D01*
X186508902Y-35412815D01*
X186542048Y-35576873D01*
X186579399Y-35776848D01*
X186515629Y-35782697D01*
X186422261Y-35710705D01*
X186262176Y-35507575D01*
X186227103Y-35385233D01*
X186128183Y-35252632D01*
X185989720Y-35221729D01*
X185797121Y-35286101D01*
X185752337Y-35376028D01*
X185677049Y-35614939D01*
X185503182Y-35713805D01*
X185320808Y-35637998D01*
X185183614Y-35440979D01*
X185172543Y-35399767D01*
X185396262Y-35399767D01*
X185455608Y-35459112D01*
X185514953Y-35399767D01*
X185455608Y-35340421D01*
X185396262Y-35399767D01*
X185172543Y-35399767D01*
X185158879Y-35348899D01*
X185078975Y-35231129D01*
X184902748Y-35232957D01*
X184725426Y-35333772D01*
X184649722Y-35459112D01*
X184525353Y-35664372D01*
X184364214Y-35660783D01*
X184242785Y-35455474D01*
X184201476Y-35352630D01*
X184113825Y-35285680D01*
X183937904Y-35248588D01*
X183631785Y-35235319D01*
X183153540Y-35239836D01*
X182799925Y-35247763D01*
X181420094Y-35281075D01*
X181384803Y-35583997D01*
X181455013Y-35931957D01*
X181592513Y-36106832D01*
X181702010Y-36230400D01*
X181772938Y-36396222D01*
X181813416Y-36653962D01*
X181831563Y-37053283D01*
X181835514Y-37593267D01*
X181832216Y-38160020D01*
X181815578Y-38541472D01*
X181775487Y-38789683D01*
X181701828Y-38956714D01*
X181584488Y-39094626D01*
X181534528Y-39142551D01*
X181147747Y-39376860D01*
X180711172Y-39489643D01*
X180188803Y-39553972D01*
X167837825Y-39553972D01*
X167577857Y-39401890D01*
X167177870Y-39259229D01*
X167169311Y-39257243D01*
X169487066Y-39257243D01*
X170260823Y-39257243D01*
X170694288Y-39245417D01*
X170935499Y-39203150D01*
X170956398Y-39184566D01*
X171668570Y-39184566D01*
X171719584Y-39197329D01*
X171969603Y-39206564D01*
X172399441Y-39211180D01*
X172577570Y-39211504D01*
X173062564Y-39208652D01*
X173374075Y-39200821D01*
X173492914Y-39189103D01*
X173399897Y-39174586D01*
X173319393Y-39169364D01*
X172755020Y-39152829D01*
X172138434Y-39157401D01*
X171835748Y-39169364D01*
X171668570Y-39184566D01*
X170956398Y-39184566D01*
X171028722Y-39120255D01*
X171034580Y-39079206D01*
X171068967Y-39005057D01*
X171195538Y-38954236D01*
X171449405Y-38922692D01*
X171865682Y-38906373D01*
X172479482Y-38901228D01*
X172577570Y-38901169D01*
X173220196Y-38905136D01*
X173660643Y-38919741D01*
X173934025Y-38949033D01*
X174075455Y-38997065D01*
X174120046Y-39067888D01*
X174120561Y-39079206D01*
X174178031Y-39185448D01*
X174380296Y-39240814D01*
X174772142Y-39257228D01*
X174789313Y-39257243D01*
X175458065Y-39257243D01*
X175400365Y-38450815D01*
X175284654Y-37708899D01*
X175058015Y-37144192D01*
X174773365Y-36643997D01*
X172465782Y-36674686D01*
X170158199Y-36705374D01*
X170008402Y-37517462D01*
X169918197Y-37945265D01*
X169825671Y-38286362D01*
X169750847Y-38466947D01*
X169750809Y-38466994D01*
X169643600Y-38680713D01*
X169565040Y-38930841D01*
X169487066Y-39257243D01*
X167169311Y-39257243D01*
X166913537Y-39197897D01*
X166473929Y-39090544D01*
X166163933Y-38925588D01*
X165957710Y-38662746D01*
X165829419Y-38261734D01*
X165753219Y-37682268D01*
X165728954Y-37351190D01*
X165684909Y-36792058D01*
X165627466Y-36410356D01*
X165542222Y-36146132D01*
X165414772Y-35939434D01*
X165379117Y-35895099D01*
X165188119Y-35572892D01*
X165100591Y-35242486D01*
X165100000Y-35219627D01*
X165067380Y-34984346D01*
X168542056Y-34984346D01*
X168632378Y-35099589D01*
X168660748Y-35103038D01*
X168775990Y-35012716D01*
X168779439Y-34984346D01*
X168689118Y-34869104D01*
X168660748Y-34865654D01*
X168545505Y-34955976D01*
X168542056Y-34984346D01*
X165067380Y-34984346D01*
X165062470Y-34948934D01*
X164981309Y-34806309D01*
X164936916Y-34687617D01*
X168423365Y-34687617D01*
X168482710Y-34746963D01*
X168542056Y-34687617D01*
X168482710Y-34628271D01*
X168423365Y-34687617D01*
X164936916Y-34687617D01*
X164929106Y-34666736D01*
X164900135Y-34430452D01*
X167632087Y-34430452D01*
X167648380Y-34501014D01*
X167711215Y-34509580D01*
X167808912Y-34466152D01*
X167790343Y-34430452D01*
X167649484Y-34416247D01*
X167632087Y-34430452D01*
X164900135Y-34430452D01*
X164891982Y-34363952D01*
X164884331Y-34221321D01*
X168116599Y-34221321D01*
X168188362Y-34334411D01*
X168342910Y-34455794D01*
X168417199Y-34418408D01*
X168368899Y-34280093D01*
X168207436Y-34159766D01*
X168164444Y-34153505D01*
X168116599Y-34221321D01*
X164884331Y-34221321D01*
X164875053Y-34048344D01*
X170144393Y-34048344D01*
X170183443Y-34931765D01*
X170222493Y-35815187D01*
X171871073Y-35815187D01*
X172526118Y-35812860D01*
X172977978Y-35802975D01*
X173260828Y-35781176D01*
X173408846Y-35743106D01*
X173456208Y-35684410D01*
X173442777Y-35614853D01*
X173327257Y-35360948D01*
X173139436Y-34990908D01*
X172926193Y-34593899D01*
X172734405Y-34259082D01*
X172703305Y-34208323D01*
X172615976Y-34102789D01*
X172481362Y-34037492D01*
X172251326Y-34005438D01*
X171877729Y-33999635D01*
X171351315Y-34011906D01*
X170144393Y-34048344D01*
X164875053Y-34048344D01*
X164870388Y-33961371D01*
X164864775Y-33522405D01*
X164875594Y-33110467D01*
X164903297Y-32788971D01*
X164948335Y-32621330D01*
X164965681Y-32610514D01*
X165043633Y-32505278D01*
X165115164Y-32241604D01*
X165133989Y-32124081D01*
X165237092Y-31741810D01*
X165408130Y-31420104D01*
X165446345Y-31374609D01*
X165605274Y-31133172D01*
X165679834Y-30798453D01*
X165693458Y-30452943D01*
X165723005Y-29837665D01*
X169639694Y-29837665D01*
X169681440Y-30127849D01*
X169763310Y-30257808D01*
X169834061Y-30410279D01*
X169885775Y-30774481D01*
X169919448Y-31359876D01*
X169932145Y-31864266D01*
X169941920Y-32436520D01*
X169950656Y-32914864D01*
X169957479Y-33253705D01*
X169961514Y-33407448D01*
X169961818Y-33411683D01*
X170074691Y-33423142D01*
X170378879Y-33432544D01*
X170828314Y-33438934D01*
X171376932Y-33441354D01*
X171390654Y-33441355D01*
X172814953Y-33441355D01*
X172814953Y-32491823D01*
X172801072Y-32021591D01*
X172763174Y-31691149D01*
X172706880Y-31545455D01*
X172696262Y-31542290D01*
X172607772Y-31440513D01*
X172605280Y-31423865D01*
X172874299Y-31423865D01*
X172890437Y-32818358D01*
X172901246Y-33427055D01*
X172924764Y-33860802D01*
X172972518Y-34182027D01*
X173056037Y-34453161D01*
X173186849Y-34736633D01*
X173276185Y-34907380D01*
X173467277Y-35297023D01*
X173600802Y-35627675D01*
X173645795Y-35812707D01*
X173749536Y-36091224D01*
X174065967Y-36285325D01*
X174369256Y-36365296D01*
X174712709Y-36453147D01*
X174935852Y-36596211D01*
X175102137Y-36855777D01*
X175245330Y-37211498D01*
X175467992Y-37703965D01*
X175733364Y-38002510D01*
X176101903Y-38149928D01*
X176626233Y-38189019D01*
X177325234Y-38189019D01*
X177325234Y-38096447D01*
X177621963Y-38096447D01*
X178164136Y-38032193D01*
X178597159Y-37934848D01*
X179079476Y-37760910D01*
X179291706Y-37660843D01*
X179598102Y-37498909D01*
X179834614Y-37353201D01*
X180010278Y-37191933D01*
X180134131Y-36983316D01*
X180215210Y-36695561D01*
X180262552Y-36296880D01*
X180285193Y-35755485D01*
X180292172Y-35039588D01*
X180292524Y-34140356D01*
X180292524Y-34034813D01*
X180529907Y-34034813D01*
X180534560Y-34818489D01*
X180547666Y-35501143D01*
X180567944Y-36051533D01*
X180594112Y-36438416D01*
X180624889Y-36630549D01*
X180636987Y-36646028D01*
X180759243Y-36541869D01*
X180864370Y-36287242D01*
X180927059Y-35968918D01*
X180922005Y-35673672D01*
X180921442Y-35670687D01*
X180927481Y-35435567D01*
X181077431Y-35221290D01*
X181271864Y-35058174D01*
X181679884Y-34746963D01*
X185430354Y-34746963D01*
X186475817Y-34747590D01*
X187311150Y-34750554D01*
X187963605Y-34757483D01*
X188460436Y-34770005D01*
X188828895Y-34789745D01*
X189096234Y-34818330D01*
X189289704Y-34857389D01*
X189436560Y-34908547D01*
X189564053Y-34973431D01*
X189603029Y-34996070D01*
X189926959Y-35273731D01*
X190023229Y-35578100D01*
X189888080Y-35888889D01*
X189787851Y-35993225D01*
X189649448Y-36170942D01*
X189576219Y-36430505D01*
X189551191Y-36841117D01*
X189550467Y-36961153D01*
X189564437Y-37348767D01*
X189600915Y-37620605D01*
X189647755Y-37714253D01*
X189782903Y-37632805D01*
X189989955Y-37432357D01*
X190029673Y-37387851D01*
X190229329Y-37113233D01*
X190474848Y-36712219D01*
X190703516Y-36289954D01*
X190738540Y-36213590D01*
X192280374Y-36213590D01*
X192287897Y-36993594D01*
X192302529Y-37404569D01*
X192337028Y-37584970D01*
X192392589Y-37540869D01*
X192394562Y-37536215D01*
X192521270Y-37337752D01*
X192765266Y-37030813D01*
X193077594Y-36676376D01*
X193131057Y-36618883D01*
X193622513Y-36153043D01*
X194023124Y-35901898D01*
X194151963Y-35862225D01*
X194535514Y-35785514D01*
X194535514Y-35755841D01*
X194772802Y-35755841D01*
X198931269Y-35755841D01*
X200128572Y-35759230D01*
X201143613Y-35769196D01*
X201965712Y-35785442D01*
X202584190Y-35807668D01*
X202988366Y-35835576D01*
X203167560Y-35868866D01*
X203174541Y-35874533D01*
X203340998Y-36024974D01*
X203496729Y-36125421D01*
X203624570Y-36180797D01*
X203699453Y-36139048D01*
X203739958Y-35956524D01*
X203764667Y-35589577D01*
X203768274Y-35512917D01*
X204030841Y-35512917D01*
X204035443Y-36005982D01*
X204059244Y-36319615D01*
X204117233Y-36511730D01*
X204224403Y-36640239D01*
X204345757Y-36729506D01*
X204635716Y-36949743D01*
X204969681Y-37235370D01*
X205057907Y-37316636D01*
X205277943Y-37544253D01*
X205398320Y-37757043D01*
X205449982Y-38041042D01*
X205463483Y-38444206D01*
X205477958Y-38842207D01*
X205511688Y-39015273D01*
X205567205Y-38975263D01*
X205573832Y-38960514D01*
X205614732Y-38751756D01*
X205649326Y-38362564D01*
X205673809Y-37849875D01*
X205684181Y-37309767D01*
X205692524Y-35896403D01*
X204970556Y-35202992D01*
X204628417Y-34886024D01*
X204345339Y-34645148D01*
X204167942Y-34519270D01*
X204139714Y-34509580D01*
X204090394Y-34619132D01*
X204052725Y-34911367D01*
X204032634Y-35331656D01*
X204030841Y-35512917D01*
X203768274Y-35512917D01*
X203769616Y-35484394D01*
X203779058Y-35059691D01*
X203768469Y-34719129D01*
X203743668Y-34551029D01*
X203576434Y-34439496D01*
X203192960Y-34392319D01*
X203088759Y-34390888D01*
X202735355Y-34404194D01*
X202573670Y-34454213D01*
X202559022Y-34556091D01*
X202563620Y-34568926D01*
X202553470Y-34697367D01*
X202361312Y-34744918D01*
X202270171Y-34746963D01*
X201988869Y-34709392D01*
X201832382Y-34620307D01*
X201845051Y-34515152D01*
X201923326Y-34469742D01*
X201896364Y-34437554D01*
X201679779Y-34412374D01*
X201347210Y-34400259D01*
X200926557Y-34406857D01*
X200647460Y-34462306D01*
X200414608Y-34599806D01*
X200181516Y-34806309D01*
X199817145Y-35092827D01*
X199482345Y-35211831D01*
X199332408Y-35221729D01*
X199002906Y-35164607D01*
X198643625Y-35020351D01*
X198328137Y-34829629D01*
X198130014Y-34633109D01*
X198105147Y-34560812D01*
X198378668Y-34560812D01*
X198379589Y-34631793D01*
X198590605Y-34739186D01*
X198600701Y-34743264D01*
X198972987Y-34840173D01*
X199331720Y-34850257D01*
X199597212Y-34777617D01*
X199682175Y-34687617D01*
X199680310Y-34587063D01*
X199547792Y-34532329D01*
X199241022Y-34511289D01*
X199042069Y-34509580D01*
X198596582Y-34521617D01*
X198378668Y-34560812D01*
X198105147Y-34560812D01*
X198097731Y-34539253D01*
X197981743Y-34437220D01*
X197638530Y-34392869D01*
X197512511Y-34390888D01*
X197125902Y-34375655D01*
X196816271Y-34337081D01*
X196727319Y-34313588D01*
X196587353Y-34294676D01*
X196590198Y-34435673D01*
X196606918Y-34491625D01*
X196632730Y-34670077D01*
X196514758Y-34738229D01*
X196325286Y-34746963D01*
X196071548Y-34718863D01*
X195987846Y-34600436D01*
X195990886Y-34479907D01*
X195984540Y-34322655D01*
X195885527Y-34236753D01*
X195638161Y-34193844D01*
X195396028Y-34176975D01*
X194772897Y-34141099D01*
X194772850Y-34948470D01*
X194772802Y-35755841D01*
X194535514Y-35755841D01*
X194535514Y-35028855D01*
X194516924Y-34601681D01*
X194465772Y-34337885D01*
X194409176Y-34272197D01*
X194278805Y-34350522D01*
X194018673Y-34563513D01*
X193667086Y-34878193D01*
X193281606Y-35242893D01*
X192280374Y-36213590D01*
X190738540Y-36213590D01*
X190926691Y-35803353D01*
X191045671Y-35394917D01*
X191089811Y-34946558D01*
X191093092Y-34722810D01*
X191093458Y-33927162D01*
X191222169Y-33790425D01*
X195366355Y-33790425D01*
X195452515Y-33911292D01*
X195485047Y-33916122D01*
X195600653Y-33875626D01*
X195603739Y-33863781D01*
X195520567Y-33762446D01*
X195485047Y-33738084D01*
X195375675Y-33747495D01*
X195366355Y-33790425D01*
X191222169Y-33790425D01*
X191713140Y-33268838D01*
X192044509Y-32929492D01*
X192286157Y-32731996D01*
X192503543Y-32638560D01*
X192762123Y-32611393D01*
X192853409Y-32610514D01*
X193175224Y-32595510D01*
X193308102Y-32537300D01*
X193301951Y-32422769D01*
X193251761Y-32176641D01*
X193229937Y-31841089D01*
X193229907Y-31829311D01*
X193229907Y-31423598D01*
X191225993Y-31423598D01*
X190492357Y-31425037D01*
X189961777Y-31431981D01*
X189599932Y-31448371D01*
X189372500Y-31478150D01*
X189245161Y-31525258D01*
X189183592Y-31593639D01*
X189160033Y-31660863D01*
X189154693Y-31881596D01*
X189205535Y-31964597D01*
X189295719Y-32125580D01*
X189313084Y-32261444D01*
X189304432Y-32329093D01*
X189261205Y-32382022D01*
X189157503Y-32422034D01*
X188967421Y-32450932D01*
X188665059Y-32470519D01*
X188224513Y-32482598D01*
X187619882Y-32488972D01*
X186825261Y-32491443D01*
X186003197Y-32491823D01*
X182693309Y-32491823D01*
X182613214Y-31957711D01*
X182533119Y-31423598D01*
X180529907Y-31423598D01*
X180529907Y-34034813D01*
X180292524Y-34034813D01*
X180292524Y-31423598D01*
X179042537Y-31423598D01*
X178421180Y-31433573D01*
X178012913Y-31465286D01*
X177794211Y-31521424D01*
X177742670Y-31571963D01*
X177728156Y-31726084D01*
X177712643Y-32084990D01*
X177696967Y-32616091D01*
X177681960Y-33286796D01*
X177668455Y-34064515D01*
X177657377Y-34908387D01*
X177621963Y-38096447D01*
X177325234Y-38096447D01*
X177325234Y-37773598D01*
X177355045Y-37499018D01*
X177428349Y-37361766D01*
X177443925Y-37358178D01*
X177484013Y-37241234D01*
X177516314Y-36897167D01*
X177540421Y-36336121D01*
X177555929Y-35568241D01*
X177562433Y-34603672D01*
X177562617Y-34390888D01*
X177562617Y-31423598D01*
X175218458Y-31423732D01*
X172874299Y-31423865D01*
X172605280Y-31423865D01*
X172577570Y-31238774D01*
X172547550Y-30914762D01*
X172471493Y-30511610D01*
X172370403Y-30115671D01*
X172265282Y-29813298D01*
X172205358Y-29708505D01*
X172158604Y-29600210D01*
X172498302Y-29600210D01*
X172501778Y-29613552D01*
X172558222Y-29840278D01*
X172641807Y-30206388D01*
X172706701Y-30503739D01*
X172852728Y-31186215D01*
X175231411Y-31186215D01*
X176065402Y-31183202D01*
X176684425Y-31173215D01*
X177110834Y-31154829D01*
X177366978Y-31126622D01*
X177475211Y-31087169D01*
X177467664Y-31043785D01*
X177376065Y-30840318D01*
X177326426Y-30512985D01*
X177324945Y-30464358D01*
X177562617Y-30464358D01*
X177571507Y-30766226D01*
X177624295Y-30969483D01*
X177760154Y-31093619D01*
X178018259Y-31158125D01*
X178437785Y-31182492D01*
X179013458Y-31186215D01*
X179583279Y-31184630D01*
X179954733Y-31174251D01*
X180166836Y-31146641D01*
X180258603Y-31093367D01*
X180269051Y-31005992D01*
X180248642Y-30919159D01*
X180188130Y-30575419D01*
X180175453Y-30385047D01*
X180164880Y-30268409D01*
X180107297Y-30191883D01*
X179961367Y-30147024D01*
X179685752Y-30125387D01*
X179239117Y-30118527D01*
X178868224Y-30117991D01*
X177562617Y-30117991D01*
X177562617Y-30464358D01*
X177324945Y-30464358D01*
X177323613Y-30420654D01*
X177324570Y-30083673D01*
X177310244Y-29830677D01*
X177250969Y-29649684D01*
X177117075Y-29528712D01*
X176878897Y-29455779D01*
X176506765Y-29418905D01*
X175971014Y-29406106D01*
X175241974Y-29405402D01*
X174810869Y-29405841D01*
X174004615Y-29407152D01*
X173406207Y-29412854D01*
X172986115Y-29425604D01*
X172714809Y-29448058D01*
X172562759Y-29482873D01*
X172500433Y-29532705D01*
X172498302Y-29600210D01*
X172158604Y-29600210D01*
X172115005Y-29499225D01*
X172103841Y-29397159D01*
X180344768Y-29397159D01*
X180381965Y-29905940D01*
X180421384Y-30335131D01*
X180470765Y-30739539D01*
X180479913Y-30800468D01*
X180540663Y-31186215D01*
X182525075Y-31186215D01*
X182477316Y-30830140D01*
X182719428Y-30830140D01*
X182764704Y-31304907D01*
X182809981Y-31779673D01*
X185230691Y-31779673D01*
X186063413Y-31777308D01*
X186686767Y-31768900D01*
X187128735Y-31752482D01*
X187417298Y-31726083D01*
X187580438Y-31687736D01*
X187646135Y-31635472D01*
X187651402Y-31609363D01*
X187610873Y-31373580D01*
X187535648Y-31134596D01*
X187419894Y-30830140D01*
X182719428Y-30830140D01*
X182477316Y-30830140D01*
X182461396Y-30711449D01*
X182437355Y-30532215D01*
X182587946Y-30532215D01*
X182608790Y-30612016D01*
X182630018Y-30635548D01*
X182765268Y-30656880D01*
X183104093Y-30675894D01*
X183612687Y-30691703D01*
X184257246Y-30703421D01*
X185003966Y-30710159D01*
X185522037Y-30711449D01*
X186427846Y-30709552D01*
X187123568Y-30702740D01*
X187636475Y-30689329D01*
X187993841Y-30667635D01*
X188222940Y-30635976D01*
X188351044Y-30592668D01*
X188405427Y-30536026D01*
X188406474Y-30533412D01*
X188403219Y-30477435D01*
X188327899Y-30434361D01*
X188154674Y-30402561D01*
X187857701Y-30380411D01*
X187411140Y-30366282D01*
X186789148Y-30358550D01*
X185965886Y-30355588D01*
X185577579Y-30355374D01*
X184605828Y-30358660D01*
X183850851Y-30369818D01*
X183292110Y-30390800D01*
X182909070Y-30423559D01*
X182681194Y-30470047D01*
X182587946Y-30532215D01*
X182437355Y-30532215D01*
X182397716Y-30236683D01*
X188807978Y-30236683D01*
X188883897Y-30711449D01*
X188959815Y-31186215D01*
X193172271Y-31186215D01*
X193130588Y-30662116D01*
X193095388Y-30356718D01*
X193011829Y-30177774D01*
X192819715Y-30058664D01*
X192769565Y-30041106D01*
X193327592Y-30041106D01*
X193403650Y-30999408D01*
X193453996Y-31644105D01*
X193502234Y-32089661D01*
X193574278Y-32372658D01*
X193696043Y-32529678D01*
X193893444Y-32597305D01*
X194192394Y-32612120D01*
X194544945Y-32610514D01*
X195485047Y-32610514D01*
X195485047Y-32252829D01*
X195447687Y-31921357D01*
X195370860Y-31689044D01*
X195278468Y-31467396D01*
X195155971Y-31104049D01*
X195056621Y-30770795D01*
X194856569Y-30058645D01*
X194092081Y-30049875D01*
X193327592Y-30041106D01*
X192769565Y-30041106D01*
X192476929Y-29938651D01*
X192099435Y-29800901D01*
X191801727Y-29666111D01*
X191698468Y-29602236D01*
X191574825Y-29566646D01*
X191331963Y-29540359D01*
X194416823Y-29540359D01*
X194460914Y-29742276D01*
X194553846Y-29833592D01*
X194635413Y-29758949D01*
X194602933Y-29563684D01*
X194548867Y-29490409D01*
X194439541Y-29432987D01*
X194416823Y-29540359D01*
X191331963Y-29540359D01*
X191288855Y-29535693D01*
X190829438Y-29509048D01*
X190185455Y-29486381D01*
X189345788Y-29467360D01*
X188299316Y-29451657D01*
X187034922Y-29438940D01*
X185938375Y-29431173D01*
X180344768Y-29397159D01*
X172103841Y-29397159D01*
X172102804Y-29387682D01*
X171994313Y-29231510D01*
X171708964Y-29097587D01*
X171306945Y-28995502D01*
X170848445Y-28934843D01*
X170393650Y-28925197D01*
X170002750Y-28976153D01*
X169847664Y-29028436D01*
X169729366Y-29192361D01*
X169657856Y-29493970D01*
X169639694Y-29837665D01*
X165723005Y-29837665D01*
X165723535Y-29826626D01*
X165805408Y-29231923D01*
X165926542Y-28731142D01*
X166074404Y-28386592D01*
X166121895Y-28323234D01*
X166363216Y-28178004D01*
X166755382Y-28065430D01*
X166942862Y-28035360D01*
X167454949Y-27920958D01*
X167797761Y-27715986D01*
X167841712Y-27672247D01*
X167976608Y-27545847D01*
X168130532Y-27463702D01*
X168354820Y-27416357D01*
X168700810Y-27394354D01*
X169219838Y-27388239D01*
X169384480Y-27388084D01*
X169954883Y-27391418D01*
X170343475Y-27408685D01*
X170605811Y-27450785D01*
X170797444Y-27528618D01*
X170973927Y-27653083D01*
X171048113Y-27714486D01*
X171435935Y-28040888D01*
X177614930Y-28068495D01*
X179038970Y-28075109D01*
X180243938Y-28079677D01*
X181248143Y-28079922D01*
X182069895Y-28073571D01*
X182727504Y-28058350D01*
X183239282Y-28031982D01*
X183623537Y-27992193D01*
X183898580Y-27936708D01*
X184082722Y-27863254D01*
X184194272Y-27769554D01*
X184251541Y-27653333D01*
X184255749Y-27625468D01*
X185025147Y-27625468D01*
X185655798Y-27609304D01*
X185951405Y-27592630D01*
X186072196Y-27565953D01*
X186019393Y-27541703D01*
X185825864Y-27411271D01*
X185796442Y-27328739D01*
X187532710Y-27328739D01*
X187592056Y-27388084D01*
X187651402Y-27328739D01*
X187592056Y-27269393D01*
X187532710Y-27328739D01*
X185796442Y-27328739D01*
X185744431Y-27182840D01*
X185793363Y-26960015D01*
X185900701Y-26868557D01*
X185892275Y-26834466D01*
X185696343Y-26824664D01*
X185574299Y-26828993D01*
X185267176Y-26861902D01*
X185123499Y-26956658D01*
X185069342Y-27172567D01*
X185062340Y-27239720D01*
X185025147Y-27625468D01*
X184255749Y-27625468D01*
X184272838Y-27512319D01*
X184276475Y-27344234D01*
X184277554Y-27240749D01*
X184300367Y-26933648D01*
X184345348Y-26742839D01*
X184356074Y-26727026D01*
X184501639Y-26690239D01*
X184816673Y-26660519D01*
X185233261Y-26644251D01*
X185237399Y-26644183D01*
X185634205Y-26643701D01*
X186183253Y-26651352D01*
X186845611Y-26665786D01*
X187582345Y-26685650D01*
X188354522Y-26709594D01*
X189123207Y-26736266D01*
X189849468Y-26764314D01*
X190494371Y-26792388D01*
X191018982Y-26819136D01*
X191384369Y-26843206D01*
X191551597Y-26863248D01*
X191551919Y-26863352D01*
X191651713Y-26944165D01*
X191569850Y-27089397D01*
X191445620Y-27166640D01*
X191198524Y-27223131D01*
X190795406Y-27262953D01*
X190203112Y-27290194D01*
X189865127Y-27299457D01*
X189573658Y-27309585D01*
X189506246Y-27320392D01*
X189649566Y-27331355D01*
X189990295Y-27341949D01*
X190515110Y-27351653D01*
X191210687Y-27359941D01*
X191461795Y-27362166D01*
X192679228Y-27375283D01*
X193677429Y-27393639D01*
X194474517Y-27418567D01*
X195088610Y-27451398D01*
X195537829Y-27493466D01*
X195840290Y-27546103D01*
X196014115Y-27610641D01*
X196077420Y-27688414D01*
X196078505Y-27701722D01*
X196041466Y-27746559D01*
X195916231Y-27783226D01*
X195681623Y-27812704D01*
X195316463Y-27835969D01*
X194799574Y-27854001D01*
X194109778Y-27867778D01*
X193225898Y-27878279D01*
X192126755Y-27886481D01*
X192072664Y-27886807D01*
X191102969Y-27891927D01*
X190194539Y-27895431D01*
X189378399Y-27897298D01*
X188685574Y-27897508D01*
X188147089Y-27896040D01*
X187793967Y-27892873D01*
X187675893Y-27889756D01*
X187424334Y-27904533D01*
X187351237Y-27973778D01*
X187356496Y-27984491D01*
X187495814Y-28020901D01*
X187851435Y-28051416D01*
X188402330Y-28075230D01*
X189127473Y-28091540D01*
X190005837Y-28099540D01*
X190381309Y-28100234D01*
X191194803Y-28104305D01*
X191927756Y-28115755D01*
X192547369Y-28133436D01*
X193020841Y-28156201D01*
X193315373Y-28182905D01*
X193399818Y-28205777D01*
X193553144Y-28309372D01*
X193792570Y-28392613D01*
X194258292Y-28620739D01*
X194617424Y-29051863D01*
X194840365Y-29571254D01*
X195003307Y-30035375D01*
X195188057Y-30498903D01*
X195259068Y-30658676D01*
X195397309Y-31051961D01*
X195512590Y-31548858D01*
X195560706Y-31875264D01*
X195615557Y-32257306D01*
X195682233Y-32523152D01*
X195739338Y-32610514D01*
X195795084Y-32717852D01*
X195832054Y-32994734D01*
X195841122Y-33263318D01*
X195841122Y-33916122D01*
X196998365Y-33942104D01*
X197448988Y-33949595D01*
X198087297Y-33956554D01*
X198863595Y-33962630D01*
X199728185Y-33967470D01*
X200631368Y-33970721D01*
X201182243Y-33971777D01*
X204208879Y-33975468D01*
X204866817Y-34628271D01*
X205318971Y-35094574D01*
X205621835Y-35467694D01*
X205806917Y-35808275D01*
X205905724Y-36176959D01*
X205949766Y-36634390D01*
X205953863Y-36720491D01*
X205989253Y-37532905D01*
X207532243Y-38332609D01*
X208106322Y-38629827D01*
X208626900Y-38898763D01*
X209047063Y-39115223D01*
X209319893Y-39255012D01*
X209371963Y-39281381D01*
X209610118Y-39412516D01*
X209728038Y-39495487D01*
X209863527Y-39577011D01*
X210141550Y-39711361D01*
X210321496Y-39791355D01*
X210644104Y-39937761D01*
X210865099Y-40051030D01*
X210914953Y-40084808D01*
X211050185Y-40174951D01*
X211311661Y-40320437D01*
X211389720Y-40361153D01*
X211658644Y-40500537D01*
X212079014Y-40719605D01*
X212592093Y-40987704D01*
X213110748Y-41259294D01*
X214294229Y-41877432D01*
X215281128Y-42387760D01*
X216083274Y-42796116D01*
X216712494Y-43108339D01*
X217180616Y-43330270D01*
X217499469Y-43467746D01*
X217680879Y-43526606D01*
X217710047Y-43529807D01*
X217886355Y-43574711D01*
X217917757Y-43624486D01*
X218030626Y-43660224D01*
X218347102Y-43708831D01*
X218833993Y-43766559D01*
X219458105Y-43829662D01*
X220186246Y-43894394D01*
X220617991Y-43929253D01*
X221406474Y-43994257D01*
X222125327Y-44060249D01*
X222737357Y-44123275D01*
X223205372Y-44179376D01*
X223492178Y-44224598D01*
X223555608Y-44241721D01*
X223741756Y-44281273D01*
X224125630Y-44333254D01*
X224668157Y-44393419D01*
X225330267Y-44457524D01*
X226072886Y-44521327D01*
X226285514Y-44538216D01*
X227043392Y-44601201D01*
X227731478Y-44665667D01*
X228310701Y-44727366D01*
X228741990Y-44782054D01*
X228986271Y-44825484D01*
X229015421Y-44834868D01*
X229200042Y-44873393D01*
X229583534Y-44923876D01*
X230127916Y-44982359D01*
X230795211Y-45044886D01*
X231547438Y-45107497D01*
X231864019Y-45131710D01*
X232639610Y-45193200D01*
X233345479Y-45256105D01*
X233943649Y-45316484D01*
X234396141Y-45370392D01*
X234664975Y-45413885D01*
X234712617Y-45427500D01*
X234897193Y-45466208D01*
X235280583Y-45517805D01*
X235824825Y-45578197D01*
X236491959Y-45643292D01*
X237244024Y-45708997D01*
X237561215Y-45734620D01*
X238327266Y-45799033D01*
X239014790Y-45864429D01*
X239588066Y-45926790D01*
X240011372Y-45982100D01*
X240248986Y-46026340D01*
X240285187Y-46040971D01*
X240469985Y-46106925D01*
X240780262Y-46140337D01*
X240844945Y-46141355D01*
X241241266Y-46193111D01*
X241670784Y-46325419D01*
X242045529Y-46503841D01*
X242277531Y-46693939D01*
X242285104Y-46705140D01*
X242446377Y-46840415D01*
X242506585Y-46853505D01*
X242664352Y-46919297D01*
X242942308Y-47089606D01*
X243199066Y-47268926D01*
X243524961Y-47492732D01*
X243784794Y-47643551D01*
X243897444Y-47684346D01*
X244023536Y-47769332D01*
X244029907Y-47806763D01*
X244126600Y-47943515D01*
X244237617Y-48000963D01*
X244423409Y-48094608D01*
X244734870Y-48277208D01*
X245101316Y-48504311D01*
X245452064Y-48731469D01*
X245716431Y-48914230D01*
X245810281Y-48989954D01*
X245945619Y-49083238D01*
X246196323Y-49231403D01*
X246225701Y-49247875D01*
X246557560Y-49489686D01*
X246819159Y-49760716D01*
X246892757Y-49872642D01*
X246950114Y-50010010D01*
X246993755Y-50203098D01*
X247026206Y-50482186D01*
X247049992Y-50877552D01*
X247067638Y-51419476D01*
X247081668Y-52138238D01*
X247094602Y-53063542D01*
X247102094Y-53913827D01*
X247102899Y-54713020D01*
X247097464Y-55421629D01*
X247086237Y-56000163D01*
X247069665Y-56409130D01*
X247054763Y-56575839D01*
X246861035Y-57127765D01*
X246450200Y-57606650D01*
X246102337Y-57859785D01*
X245888394Y-57998105D01*
X245550336Y-58220940D01*
X245160994Y-58480278D01*
X245157477Y-58482633D01*
X244786801Y-58717860D01*
X244481275Y-58888301D01*
X244303219Y-58959400D01*
X244296963Y-58959764D01*
X244159106Y-59037311D01*
X244148598Y-59082464D01*
X244052136Y-59220267D01*
X243940888Y-59279285D01*
X243732009Y-59388015D01*
X243416352Y-59588277D01*
X243183164Y-59750326D01*
X242860441Y-59967377D01*
X242604573Y-60111444D01*
X242500687Y-60146963D01*
X242374455Y-60220037D01*
X242368224Y-60251726D01*
X242269955Y-60355638D01*
X242015474Y-60516978D01*
X241745094Y-60658435D01*
X241499155Y-60766597D01*
X241234518Y-60853372D01*
X240911509Y-60925341D01*
X240490455Y-60989089D01*
X239931682Y-61051199D01*
X239195515Y-61118252D01*
X238748131Y-61155722D01*
X238008376Y-61220609D01*
X237338471Y-61286924D01*
X236778674Y-61350075D01*
X236369245Y-61405472D01*
X236150442Y-61448524D01*
X236136916Y-61453475D01*
X235953419Y-61491813D01*
X235570309Y-61542701D01*
X235024783Y-61602225D01*
X234354042Y-61666467D01*
X233595282Y-61731512D01*
X233199299Y-61762746D01*
X232428141Y-61825900D01*
X231742810Y-61889837D01*
X231176505Y-61950813D01*
X230762423Y-62005086D01*
X230533764Y-62048913D01*
X230499066Y-62067162D01*
X230395253Y-62132918D01*
X230142407Y-62162190D01*
X230113318Y-62162283D01*
X229788294Y-62171773D01*
X229302247Y-62200474D01*
X228698939Y-62244378D01*
X228022129Y-62299476D01*
X227315579Y-62361762D01*
X226623049Y-62427225D01*
X225988299Y-62491859D01*
X225455090Y-62551654D01*
X225067183Y-62602603D01*
X224868337Y-62640697D01*
X224861215Y-62643355D01*
X224684199Y-62678604D01*
X224303285Y-62728262D01*
X223751293Y-62788940D01*
X223061038Y-62857251D01*
X222265340Y-62929804D01*
X221397016Y-63003212D01*
X221300467Y-63011033D01*
X220438643Y-63083705D01*
X219657121Y-63155668D01*
X218986284Y-63223634D01*
X218456515Y-63284318D01*
X218098197Y-63334436D01*
X217941711Y-63370700D01*
X217937539Y-63374704D01*
X217801297Y-63458371D01*
X217700156Y-63470661D01*
X217534705Y-63522105D01*
X217208270Y-63660731D01*
X216767787Y-63863324D01*
X216260198Y-64106674D01*
X215732440Y-64367568D01*
X215231452Y-64622793D01*
X214804173Y-64849136D01*
X214497543Y-65023386D01*
X214358499Y-65122331D01*
X214357571Y-65123647D01*
X214219966Y-65214053D01*
X213934992Y-65345863D01*
X213733879Y-65426076D01*
X213412803Y-65562328D01*
X213208618Y-65677760D01*
X213170094Y-65722595D01*
X213068417Y-65806947D01*
X212812396Y-65921084D01*
X212679625Y-65968033D01*
X212339161Y-66102637D01*
X212085467Y-66241918D01*
X212039628Y-66279431D01*
X211882050Y-66387562D01*
X211557076Y-66577267D01*
X211109384Y-66823469D01*
X210583657Y-67101092D01*
X210482667Y-67153248D01*
X209808384Y-67500319D01*
X209022297Y-67905054D01*
X208223609Y-68316369D01*
X207532243Y-68672507D01*
X205989253Y-69467478D01*
X205955788Y-70237361D01*
X205902709Y-70805807D01*
X205776688Y-71260588D01*
X205542931Y-71672500D01*
X205166644Y-72112338D01*
X204906603Y-72372197D01*
X204232695Y-73025000D01*
X201194151Y-73028691D01*
X200290456Y-73030789D01*
X199395142Y-73034684D01*
X198557727Y-73040027D01*
X197827731Y-73046466D01*
X197254672Y-73053652D01*
X196998365Y-73058364D01*
X195841122Y-73084346D01*
X195841122Y-73737150D01*
X195824386Y-74094681D01*
X195781215Y-74331795D01*
X195739338Y-74389954D01*
X195675187Y-74497726D01*
X195609022Y-74778652D01*
X195560706Y-75125203D01*
X195479610Y-75616566D01*
X195353219Y-76094395D01*
X195259068Y-76341792D01*
X195083789Y-76756072D01*
X194903948Y-77239432D01*
X194840365Y-77429214D01*
X194564176Y-78035647D01*
X194187649Y-78432050D01*
X193792570Y-78607855D01*
X193531330Y-78701473D01*
X193399818Y-78794691D01*
X193267981Y-78823673D01*
X192931568Y-78849614D01*
X192423379Y-78871367D01*
X191776213Y-78887785D01*
X191022870Y-78897721D01*
X190381309Y-78900234D01*
X189449438Y-78904812D01*
X188662674Y-78918010D01*
X188042043Y-78939024D01*
X187608573Y-78967048D01*
X187383290Y-79001278D01*
X187356496Y-79015977D01*
X187406008Y-79090499D01*
X187639711Y-79112253D01*
X187675893Y-79110712D01*
X187886023Y-79106384D01*
X188302506Y-79103768D01*
X188894316Y-79102845D01*
X189630428Y-79103594D01*
X190479819Y-79105993D01*
X191411463Y-79110021D01*
X192072664Y-79113661D01*
X193181849Y-79121784D01*
X194074831Y-79132162D01*
X194772790Y-79145772D01*
X195296902Y-79163595D01*
X195668345Y-79186607D01*
X195908297Y-79215788D01*
X196037936Y-79252116D01*
X196078439Y-79296570D01*
X196078505Y-79298746D01*
X196030688Y-79378687D01*
X195875156Y-79445187D01*
X195593793Y-79499579D01*
X195168477Y-79543196D01*
X194581091Y-79577369D01*
X193813515Y-79603433D01*
X192847631Y-79622719D01*
X191665319Y-79636561D01*
X191461795Y-79638302D01*
X190715427Y-79646040D01*
X190135644Y-79655356D01*
X189735770Y-79665727D01*
X189529128Y-79676631D01*
X189529042Y-79687543D01*
X189748835Y-79697941D01*
X189865127Y-79701011D01*
X190553616Y-79723913D01*
X191037971Y-79757553D01*
X191351347Y-79806019D01*
X191526900Y-79873394D01*
X191569850Y-79911071D01*
X191629206Y-79995061D01*
X191633844Y-80060622D01*
X191558383Y-80111018D01*
X191377446Y-80149513D01*
X191065654Y-80179372D01*
X190597626Y-80203860D01*
X189947986Y-80226241D01*
X189091353Y-80249779D01*
X188897664Y-80254792D01*
X188104826Y-80276796D01*
X187349846Y-80300656D01*
X186680581Y-80324637D01*
X186144890Y-80347005D01*
X185790631Y-80366026D01*
X185752337Y-80368768D01*
X185301493Y-80387469D01*
X184882553Y-80379493D01*
X184714166Y-80364045D01*
X184384376Y-80221044D01*
X184225631Y-79931580D01*
X184240352Y-79743130D01*
X184471597Y-79743130D01*
X184509780Y-79933666D01*
X184587485Y-80082347D01*
X184633882Y-80009132D01*
X184653627Y-79929495D01*
X184664555Y-79713761D01*
X184635259Y-79642657D01*
X184549945Y-79621312D01*
X185054568Y-79621312D01*
X185064033Y-79973750D01*
X185089977Y-80164393D01*
X185238542Y-80269265D01*
X185513509Y-80319437D01*
X185809255Y-80310343D01*
X186020154Y-80237419D01*
X186049066Y-80205841D01*
X186039655Y-80096469D01*
X185996725Y-80087150D01*
X185894624Y-79987807D01*
X185871028Y-79849767D01*
X185905432Y-79768450D01*
X186203780Y-79768450D01*
X186244571Y-79894468D01*
X186263408Y-79916707D01*
X186470342Y-80053126D01*
X186684427Y-80069847D01*
X186812689Y-79966966D01*
X186820561Y-79916117D01*
X186740233Y-79705690D01*
X186538440Y-79671729D01*
X187532710Y-79671729D01*
X187592056Y-79731075D01*
X188126168Y-79731075D01*
X188169596Y-79828772D01*
X188205296Y-79810203D01*
X188219501Y-79669344D01*
X188205296Y-79651947D01*
X188134734Y-79668240D01*
X188126168Y-79731075D01*
X187592056Y-79731075D01*
X187651402Y-79671729D01*
X187592056Y-79612383D01*
X187532710Y-79671729D01*
X186538440Y-79671729D01*
X186496419Y-79664657D01*
X186373024Y-79689564D01*
X186203780Y-79768450D01*
X185905432Y-79768450D01*
X185954956Y-79651397D01*
X186108411Y-79612383D01*
X186301735Y-79538169D01*
X186345795Y-79434346D01*
X186394439Y-79276189D01*
X186435512Y-79256309D01*
X186533470Y-79176709D01*
X186841611Y-79176709D01*
X186867895Y-79317044D01*
X186989976Y-79302540D01*
X187153134Y-79149558D01*
X187176636Y-79055682D01*
X187113814Y-78931440D01*
X186981423Y-78957739D01*
X186863570Y-79104193D01*
X186841611Y-79176709D01*
X186533470Y-79176709D01*
X186559874Y-79155253D01*
X186677940Y-78919050D01*
X186739662Y-78700171D01*
X192232392Y-78700171D01*
X192972776Y-78633036D01*
X193420163Y-78565649D01*
X193811892Y-78460747D01*
X194011050Y-78370715D01*
X194284715Y-78112418D01*
X194449485Y-77855405D01*
X194571919Y-77605784D01*
X194657498Y-77475935D01*
X194723595Y-77339523D01*
X194830433Y-77040941D01*
X194947479Y-76669096D01*
X195074649Y-76278101D01*
X195189418Y-75987210D01*
X195262989Y-75864127D01*
X195309326Y-75721071D01*
X195288547Y-75630903D01*
X195295336Y-75391111D01*
X195341400Y-75308302D01*
X195414812Y-75127148D01*
X195482435Y-74810146D01*
X195536870Y-74426555D01*
X195570720Y-74045633D01*
X195576587Y-73736640D01*
X195547072Y-73568833D01*
X195528547Y-73556250D01*
X195367472Y-73547939D01*
X195036225Y-73528604D01*
X194601547Y-73502159D01*
X194527986Y-73497599D01*
X193630272Y-73441810D01*
X193489125Y-75089829D01*
X193418761Y-75782371D01*
X193337086Y-76375807D01*
X193251512Y-76823824D01*
X193170982Y-77077218D01*
X193046661Y-77351273D01*
X192993286Y-77539627D01*
X192993255Y-77541571D01*
X192927115Y-77700989D01*
X192758125Y-77975772D01*
X192612458Y-78183362D01*
X192232392Y-78700171D01*
X186739662Y-78700171D01*
X186754332Y-78648147D01*
X186753671Y-78442994D01*
X186733666Y-78409788D01*
X186562308Y-78355123D01*
X186230171Y-78327137D01*
X185858973Y-78330328D01*
X185099533Y-78366122D01*
X185064029Y-79185187D01*
X185054568Y-79621312D01*
X184549945Y-79621312D01*
X184522186Y-79614367D01*
X184471597Y-79743130D01*
X184240352Y-79743130D01*
X184256887Y-79531456D01*
X184262935Y-79511831D01*
G37*
G36*
X185413404Y-71378786D02*
G01*
X185575841Y-71419941D01*
X185616401Y-71461231D01*
X185687146Y-71635388D01*
X185577167Y-71776358D01*
X185420490Y-71857111D01*
X185325363Y-71732009D01*
X185322560Y-71724782D01*
X185313288Y-71590810D01*
X185405632Y-71590810D01*
X185427454Y-71744755D01*
X185467971Y-71746593D01*
X185496305Y-71587737D01*
X185477342Y-71519101D01*
X185424639Y-71474143D01*
X185405632Y-71590810D01*
X185313288Y-71590810D01*
X185307010Y-71500102D01*
X185413404Y-71378786D01*
G37*
G36*
X184356312Y-71352559D02*
G01*
X184527995Y-71352850D01*
X184590007Y-71399773D01*
X184662947Y-71551807D01*
X184542743Y-71733539D01*
X184535022Y-71741313D01*
X184379158Y-71873724D01*
X184297640Y-71826883D01*
X184257293Y-71732487D01*
X184246733Y-71541355D01*
X184328038Y-71541355D01*
X184371465Y-71639052D01*
X184407165Y-71620483D01*
X184421370Y-71479624D01*
X184407165Y-71462228D01*
X184336603Y-71478520D01*
X184328038Y-71541355D01*
X184246733Y-71541355D01*
X184244487Y-71500696D01*
X184356312Y-71352559D01*
G37*
G36*
X239582355Y-48480563D02*
G01*
X239882333Y-48405543D01*
X240144774Y-48396496D01*
X240451312Y-48406485D01*
X240682622Y-48459579D01*
X240903408Y-48590470D01*
X241178378Y-48833848D01*
X241437682Y-49089654D01*
X242130841Y-49782813D01*
X242130841Y-51380402D01*
X242120435Y-52154518D01*
X242088791Y-52699904D01*
X242035275Y-53024321D01*
X241988411Y-53120421D01*
X241743866Y-53231763D01*
X241402219Y-53256382D01*
X241087341Y-53194280D01*
X240967664Y-53120421D01*
X240897207Y-52926948D01*
X240850759Y-52508646D01*
X240827924Y-51860910D01*
X240825234Y-51464779D01*
X240825234Y-49951567D01*
X240439486Y-49664382D01*
X240101369Y-49454557D01*
X239771696Y-49312066D01*
X239727337Y-49300005D01*
X239461395Y-49162122D01*
X239400935Y-48997400D01*
X239423875Y-48792360D01*
X239636009Y-48792360D01*
X239657674Y-48941418D01*
X239895842Y-49093426D01*
X239921861Y-49103632D01*
X240184040Y-49247807D01*
X240509386Y-49483464D01*
X240634011Y-49587756D01*
X241062617Y-49964077D01*
X241062617Y-53025468D01*
X241893458Y-53025468D01*
X241893458Y-49821479D01*
X241464226Y-49346370D01*
X241194686Y-49079595D01*
X240965765Y-48907223D01*
X240870768Y-48871262D01*
X240721892Y-48802530D01*
X240706542Y-48752570D01*
X240600457Y-48681786D01*
X240332050Y-48639325D01*
X240172430Y-48633879D01*
X239813408Y-48678949D01*
X239636009Y-48792360D01*
X239423875Y-48792360D01*
X239438156Y-48664708D01*
X239582355Y-48480563D01*
G37*
G36*
X226704574Y-49173365D02*
G01*
X226728605Y-49148799D01*
X226876318Y-49034420D01*
X226959968Y-49118983D01*
X226997255Y-49226050D01*
X227021057Y-49487617D01*
X226928653Y-49624570D01*
X226767617Y-49589338D01*
X226700166Y-49523139D01*
X226607929Y-49346028D01*
X226819626Y-49346028D01*
X226863054Y-49443725D01*
X226898754Y-49425156D01*
X226912959Y-49284297D01*
X226898754Y-49266901D01*
X226828192Y-49283193D01*
X226819626Y-49346028D01*
X226607929Y-49346028D01*
X226606733Y-49343731D01*
X226704574Y-49173365D01*
G37*
G36*
X201419626Y-50532944D02*
G01*
X201419626Y-56467524D01*
X195010281Y-56467524D01*
X195010281Y-56352908D01*
X195247664Y-56352908D01*
X198244626Y-56321197D01*
X201241589Y-56289486D01*
X201273449Y-53529907D01*
X201305310Y-50770327D01*
X195247664Y-50770327D01*
X195247664Y-56352908D01*
X195010281Y-56352908D01*
X195010281Y-50532944D01*
X201419626Y-50532944D01*
G37*
G36*
X239452608Y-57848696D02*
G01*
X239654382Y-57719906D01*
X239727337Y-57700462D01*
X240041122Y-57576736D01*
X240388099Y-57373015D01*
X240439486Y-57336086D01*
X240825234Y-57048901D01*
X240825234Y-55535689D01*
X240831316Y-54845714D01*
X240857975Y-54358232D01*
X240917829Y-54038485D01*
X241023499Y-53851715D01*
X241187601Y-53763165D01*
X241422757Y-53738078D01*
X241478038Y-53737617D01*
X241725769Y-53753695D01*
X241901682Y-53824840D01*
X242017943Y-53985420D01*
X242086716Y-54269802D01*
X242120164Y-54712353D01*
X242130452Y-55347442D01*
X242130841Y-55581962D01*
X242128761Y-56219944D01*
X242117286Y-56668848D01*
X242088563Y-56976977D01*
X242034743Y-57192630D01*
X241947971Y-57364111D01*
X241820398Y-57539719D01*
X241810529Y-57552397D01*
X241301808Y-58109505D01*
X240801640Y-58451150D01*
X240279801Y-58596061D01*
X240113753Y-58603972D01*
X239768025Y-58588325D01*
X239529879Y-58548716D01*
X239480062Y-58524845D01*
X239421929Y-58358698D01*
X239408240Y-58197629D01*
X239636602Y-58197629D01*
X239774917Y-58317302D01*
X240136385Y-58366324D01*
X240172824Y-58366589D01*
X240481197Y-58348234D01*
X240726486Y-58267371D01*
X240985017Y-58085307D01*
X241300394Y-57794951D01*
X241893458Y-57223313D01*
X241893458Y-53975000D01*
X241062617Y-53975000D01*
X241062617Y-55523658D01*
X241060714Y-56157263D01*
X241050035Y-56598588D01*
X241023123Y-56892733D01*
X240972524Y-57084796D01*
X240890781Y-57219878D01*
X240770439Y-57343079D01*
X240760275Y-57352518D01*
X240434647Y-57601999D01*
X240062735Y-57820169D01*
X240048125Y-57827185D01*
X239726114Y-58027519D01*
X239636602Y-58197629D01*
X239408240Y-58197629D01*
X239400935Y-58111685D01*
X239452608Y-57848696D01*
G37*
G36*
X226699850Y-57477709D02*
G01*
X226884854Y-57359226D01*
X227019459Y-57453157D01*
X227057010Y-57654440D01*
X226995569Y-57894869D01*
X226844889Y-57942103D01*
X226699850Y-57831170D01*
X226619308Y-57654440D01*
X226819626Y-57654440D01*
X226863054Y-57752136D01*
X226898754Y-57733567D01*
X226912959Y-57592708D01*
X226898754Y-57575312D01*
X226828192Y-57591605D01*
X226819626Y-57654440D01*
X226619308Y-57654440D01*
X226613146Y-57640919D01*
X226699850Y-57477709D01*
G37*
D11*
%TO.C,U1*%
X48577500Y-53340000D02*
X15557500Y-53340000D01*
X18097500Y-38100000D02*
X18097500Y-35560000D01*
X15557500Y-35560000D02*
X48577500Y-35560000D01*
X48577500Y-35560000D02*
X48577500Y-53340000D01*
X18097500Y-38100000D02*
X20637500Y-38100000D01*
X20637500Y-38100000D02*
X20637500Y-35560000D01*
X15557500Y-53340000D02*
X15557500Y-35560000D01*
G36*
X24086530Y-50794635D02*
G01*
X23986530Y-50794635D01*
X23986530Y-50294635D01*
X24086530Y-50294635D01*
X24086530Y-50794635D01*
G37*
D10*
X24086530Y-50794635D02*
X23986530Y-50794635D01*
X23986530Y-50294635D01*
X24086530Y-50294635D01*
X24086530Y-50794635D01*
G36*
X24286530Y-50394635D02*
G01*
X23986530Y-50394635D01*
X23986530Y-50294635D01*
X24286530Y-50294635D01*
X24286530Y-50394635D01*
G37*
X24286530Y-50394635D02*
X23986530Y-50394635D01*
X23986530Y-50294635D01*
X24286530Y-50294635D01*
X24286530Y-50394635D01*
G36*
X24486530Y-50594635D02*
G01*
X24386530Y-50594635D01*
X24386530Y-50494635D01*
X24486530Y-50494635D01*
X24486530Y-50594635D01*
G37*
X24486530Y-50594635D02*
X24386530Y-50594635D01*
X24386530Y-50494635D01*
X24486530Y-50494635D01*
X24486530Y-50594635D01*
G36*
X24786530Y-50394635D02*
G01*
X24586530Y-50394635D01*
X24586530Y-50294635D01*
X24786530Y-50294635D01*
X24786530Y-50394635D01*
G37*
X24786530Y-50394635D02*
X24586530Y-50394635D01*
X24586530Y-50294635D01*
X24786530Y-50294635D01*
X24786530Y-50394635D01*
G36*
X24786530Y-50794635D02*
G01*
X23986530Y-50794635D01*
X23986530Y-50694635D01*
X24786530Y-50694635D01*
X24786530Y-50794635D01*
G37*
X24786530Y-50794635D02*
X23986530Y-50794635D01*
X23986530Y-50694635D01*
X24786530Y-50694635D01*
X24786530Y-50794635D01*
%TD*%
D12*
%TO.C,U1*%
X19367500Y-36830000D03*
D13*
X21907500Y-36830000D03*
X24447500Y-36830000D03*
X26987500Y-36830000D03*
X29527500Y-36830000D03*
X32067500Y-36830000D03*
X34607500Y-36830000D03*
X37147500Y-36830000D03*
X39687500Y-36830000D03*
X42227500Y-36830000D03*
X44767500Y-36830000D03*
X47307500Y-36830000D03*
X47307500Y-52070000D03*
X44767500Y-52070000D03*
X42227500Y-52070000D03*
X39687500Y-52070000D03*
X37147500Y-52070000D03*
X34607500Y-52070000D03*
X32067500Y-52070000D03*
X29527500Y-52070000D03*
X26987500Y-52070000D03*
X24447500Y-52070000D03*
X21907500Y-52070000D03*
X19367500Y-52070000D03*
%TD*%
M02*
