%TF.GenerationSoftware,KiCad,Pcbnew,(6.0.7)*%
%TF.CreationDate,2022-12-29T17:16:15+01:00*%
%TF.ProjectId,Kestrel47,4b657374-7265-46c3-9437-2e6b69636164,rev?*%
%TF.SameCoordinates,Original*%
%TF.FileFunction,Soldermask,Top*%
%TF.FilePolarity,Negative*%
%FSLAX46Y46*%
G04 Gerber Fmt 4.6, Leading zero omitted, Abs format (unit mm)*
G04 Created by KiCad (PCBNEW (6.0.7)) date 2022-12-29 17:16:15*
%MOMM*%
%LPD*%
G01*
G04 APERTURE LIST*
%ADD10R,1.524000X1.524000*%
%ADD11C,1.524000*%
%ADD12C,3.987800*%
%ADD13C,1.750000*%
%ADD14C,3.048000*%
%ADD15R,1.350000X1.350000*%
%ADD16O,1.350000X1.350000*%
%ADD17R,1.700000X1.700000*%
%ADD18O,1.700000X1.700000*%
%ADD19R,1.752600X1.752600*%
%ADD20C,1.752600*%
%ADD21C,0.900000*%
G04 APERTURE END LIST*
D10*
%TO.C,D29*%
X176212500Y-68897500D03*
D11*
X176212500Y-61277500D03*
%TD*%
D10*
%TO.C,D7*%
X61912500Y-68897500D03*
D11*
X61912500Y-61277500D03*
%TD*%
D12*
%TO.C,MX27*%
X158750000Y-25400000D03*
D13*
X153670000Y-25400000D03*
X163830000Y-25400000D03*
%TD*%
D10*
%TO.C,D43*%
X242887500Y-30797500D03*
D11*
X242887500Y-23177500D03*
%TD*%
D10*
%TO.C,D47*%
X261937500Y-30735000D03*
D11*
X261937500Y-23115000D03*
%TD*%
D13*
%TO.C,MX45*%
X244157500Y-63500000D03*
D12*
X249237500Y-63500000D03*
D13*
X254317500Y-63500000D03*
%TD*%
D10*
%TO.C,D17*%
X109537500Y-30797500D03*
D11*
X109537500Y-23177500D03*
%TD*%
D12*
%TO.C,MX32*%
X182562500Y-44450000D03*
D13*
X177482500Y-44450000D03*
X187642500Y-44450000D03*
%TD*%
D10*
%TO.C,D38*%
X219075000Y-87947500D03*
D11*
X219075000Y-80327500D03*
%TD*%
D10*
%TO.C,D2*%
X35687000Y-49911000D03*
D11*
X35687000Y-42291000D03*
%TD*%
D13*
%TO.C,MX37*%
X211455000Y-63500000D03*
X201295000Y-63500000D03*
D12*
X206375000Y-63500000D03*
%TD*%
D10*
%TO.C,D18*%
X114300000Y-49847500D03*
D11*
X114300000Y-42227500D03*
%TD*%
D12*
%TO.C,MX13*%
X82550000Y-25400000D03*
D13*
X77470000Y-25400000D03*
X87630000Y-25400000D03*
%TD*%
D10*
%TO.C,D46*%
X259588000Y-87947500D03*
D11*
X259588000Y-80327500D03*
%TD*%
D13*
%TO.C,MX10*%
X63182500Y-44450000D03*
X73342500Y-44450000D03*
D12*
X68262500Y-44450000D03*
%TD*%
D10*
%TO.C,D31*%
X185737500Y-30797500D03*
D11*
X185737500Y-23177500D03*
%TD*%
D13*
%TO.C,MX23*%
X140017500Y-82550000D03*
D12*
X134937500Y-82550000D03*
D13*
X129857500Y-82550000D03*
%TD*%
%TO.C,MX33*%
X192405000Y-63500000D03*
X182245000Y-63500000D03*
D12*
X187325000Y-63500000D03*
%TD*%
D10*
%TO.C,D8*%
X66675000Y-87947500D03*
D11*
X66675000Y-80327500D03*
%TD*%
D13*
%TO.C,MX22*%
X125095000Y-63500000D03*
X135255000Y-63500000D03*
D12*
X130175000Y-63500000D03*
%TD*%
D10*
%TO.C,D22*%
X138112500Y-68897500D03*
D11*
X138112500Y-61277500D03*
%TD*%
D10*
%TO.C,D37*%
X214312500Y-68897500D03*
D11*
X214312500Y-61277500D03*
%TD*%
D13*
%TO.C,MX17*%
X106680000Y-25400000D03*
D12*
X101600000Y-25400000D03*
D13*
X96520000Y-25400000D03*
%TD*%
D10*
%TO.C,D16*%
X114300000Y-87947500D03*
D11*
X114300000Y-80327500D03*
%TD*%
D13*
%TO.C,MX24*%
X134620000Y-25400000D03*
D12*
X139700000Y-25400000D03*
D13*
X144780000Y-25400000D03*
%TD*%
D12*
%TO.C,MX40*%
X220662500Y-44450000D03*
D13*
X215582500Y-44450000D03*
X225742500Y-44450000D03*
%TD*%
D10*
%TO.C,D15*%
X100012500Y-68960000D03*
D11*
X100012500Y-61340000D03*
%TD*%
D12*
%TO.C,MX20*%
X120650000Y-25400000D03*
D13*
X115570000Y-25400000D03*
X125730000Y-25400000D03*
%TD*%
D10*
%TO.C,D6*%
X57150000Y-49847500D03*
D11*
X57150000Y-42227500D03*
%TD*%
D13*
%TO.C,MX16*%
X101282500Y-82550000D03*
D12*
X106362500Y-82550000D03*
D13*
X111442500Y-82550000D03*
D12*
X94456250Y-74295000D03*
D14*
X94456250Y-89535000D03*
X118268750Y-89535000D03*
D12*
X118268750Y-74295000D03*
%TD*%
%TO.C,MX2*%
X27772544Y-44451161D03*
D13*
X22692544Y-44451161D03*
X32852544Y-44451161D03*
%TD*%
D12*
%TO.C,MX36*%
X201612500Y-44450000D03*
D13*
X206692500Y-44450000D03*
X196532500Y-44450000D03*
%TD*%
D10*
%TO.C,D24*%
X147637500Y-30797500D03*
D11*
X147637500Y-23177500D03*
%TD*%
D13*
%TO.C,MX38*%
X206057500Y-82550000D03*
X216217500Y-82550000D03*
D12*
X211137500Y-82550000D03*
%TD*%
D10*
%TO.C,D19*%
X119062500Y-68897500D03*
D11*
X119062500Y-61277500D03*
%TD*%
D13*
%TO.C,MX8*%
X53657500Y-82550000D03*
D12*
X58737500Y-82550000D03*
D13*
X63817500Y-82550000D03*
%TD*%
%TO.C,MX3*%
X25082500Y-63500000D03*
D12*
X30162500Y-63500000D03*
D13*
X35242500Y-63500000D03*
%TD*%
D10*
%TO.C,D9*%
X71437500Y-30797500D03*
D11*
X71437500Y-23177500D03*
%TD*%
D10*
%TO.C,D1*%
X33337500Y-30797500D03*
D11*
X33337500Y-23177500D03*
%TD*%
D10*
%TO.C,D32*%
X190500000Y-49847500D03*
D11*
X190500000Y-42227500D03*
%TD*%
D13*
%TO.C,MX1*%
X30480000Y-25400000D03*
X20320000Y-25400000D03*
D12*
X25400000Y-25400000D03*
%TD*%
D13*
%TO.C,MX34*%
X187007500Y-82550000D03*
D12*
X192087500Y-82550000D03*
D13*
X197167500Y-82550000D03*
%TD*%
D12*
%TO.C,MX28*%
X163512500Y-44450000D03*
D13*
X168592500Y-44450000D03*
X158432500Y-44450000D03*
%TD*%
D12*
%TO.C,MX26*%
X149225000Y-63500000D03*
D13*
X144145000Y-63500000D03*
X154305000Y-63500000D03*
%TD*%
D10*
%TO.C,D3*%
X38100000Y-68897500D03*
D11*
X38100000Y-61277500D03*
%TD*%
D13*
%TO.C,MX4*%
X37617923Y-82550000D03*
X27457923Y-82550000D03*
D12*
X32537923Y-82550000D03*
%TD*%
D13*
%TO.C,MX46*%
X256714806Y-82550000D03*
D12*
X251634806Y-82550000D03*
D13*
X246554806Y-82550000D03*
%TD*%
D12*
%TO.C,MX18*%
X106362500Y-44450000D03*
D13*
X111442500Y-44450000D03*
X101282500Y-44450000D03*
%TD*%
D10*
%TO.C,D42*%
X238125000Y-87885000D03*
D11*
X238125000Y-80265000D03*
%TD*%
D13*
%TO.C,MX15*%
X86995000Y-63500000D03*
X97155000Y-63500000D03*
D12*
X92075000Y-63500000D03*
%TD*%
D10*
%TO.C,D21*%
X133350000Y-49785000D03*
D11*
X133350000Y-42165000D03*
%TD*%
D10*
%TO.C,D28*%
X171450000Y-49847500D03*
D11*
X171450000Y-42227500D03*
%TD*%
D13*
%TO.C,MX29*%
X173355000Y-63500000D03*
D12*
X168275000Y-63500000D03*
D13*
X163195000Y-63500000D03*
%TD*%
D10*
%TO.C,D40*%
X228600000Y-49847500D03*
D11*
X228600000Y-42227500D03*
%TD*%
D12*
%TO.C,MX25*%
X144462500Y-44450000D03*
D13*
X139382500Y-44450000D03*
X149542500Y-44450000D03*
%TD*%
D12*
%TO.C,MX39*%
X215900000Y-25400000D03*
D13*
X210820000Y-25400000D03*
X220980000Y-25400000D03*
%TD*%
D10*
%TO.C,D45*%
X257175000Y-68897500D03*
D11*
X257175000Y-61277500D03*
%TD*%
D10*
%TO.C,D4*%
X40386000Y-88011000D03*
D11*
X40386000Y-80391000D03*
%TD*%
D13*
%TO.C,MX5*%
X49530000Y-25400000D03*
D12*
X44450000Y-25400000D03*
D13*
X39370000Y-25400000D03*
%TD*%
D10*
%TO.C,D34*%
X200025000Y-87947500D03*
D11*
X200025000Y-80327500D03*
%TD*%
D13*
%TO.C,MX6*%
X54292500Y-44450000D03*
X44132500Y-44450000D03*
D12*
X49212500Y-44450000D03*
%TD*%
%TO.C,MX44*%
X246872306Y-44450000D03*
D13*
X251952306Y-44450000D03*
X241792306Y-44450000D03*
%TD*%
%TO.C,MX12*%
X82867500Y-82550000D03*
D12*
X77787500Y-82550000D03*
D13*
X72707500Y-82550000D03*
%TD*%
D10*
%TO.C,D14*%
X95250000Y-49847500D03*
D11*
X95250000Y-42227500D03*
%TD*%
D10*
%TO.C,D10*%
X76200000Y-49847500D03*
D11*
X76200000Y-42227500D03*
%TD*%
D10*
%TO.C,D26*%
X157162500Y-68897500D03*
D11*
X157162500Y-61277500D03*
%TD*%
D10*
%TO.C,D5*%
X52387500Y-30797500D03*
D11*
X52387500Y-23177500D03*
%TD*%
D10*
%TO.C,D25*%
X152400000Y-49847500D03*
D11*
X152400000Y-42227500D03*
%TD*%
D13*
%TO.C,MX31*%
X182880000Y-25400000D03*
X172720000Y-25400000D03*
D12*
X177800000Y-25400000D03*
%TD*%
%TO.C,MX19*%
X111125000Y-63500000D03*
D13*
X116205000Y-63500000D03*
X106045000Y-63500000D03*
%TD*%
%TO.C,MX7*%
X48895000Y-63500000D03*
D12*
X53975000Y-63500000D03*
D13*
X59055000Y-63500000D03*
%TD*%
D10*
%TO.C,D33*%
X195262500Y-68897500D03*
D11*
X195262500Y-61277500D03*
%TD*%
D10*
%TO.C,D35*%
X204787500Y-30797500D03*
D11*
X204787500Y-23177500D03*
%TD*%
D10*
%TO.C,D20*%
X128587500Y-30797500D03*
D11*
X128587500Y-23177500D03*
%TD*%
D10*
%TO.C,D23*%
X142875000Y-87947500D03*
D11*
X142875000Y-80327500D03*
%TD*%
D13*
%TO.C,MX42*%
X225107500Y-82550000D03*
D12*
X230187500Y-82550000D03*
D13*
X235267500Y-82550000D03*
%TD*%
D12*
%TO.C,MX11*%
X73025000Y-63500000D03*
D13*
X67945000Y-63500000D03*
X78105000Y-63500000D03*
%TD*%
D10*
%TO.C,D27*%
X166687500Y-30797500D03*
D11*
X166687500Y-23177500D03*
%TD*%
D10*
%TO.C,D12*%
X85725000Y-87947500D03*
D11*
X85725000Y-80327500D03*
%TD*%
D13*
%TO.C,MX47*%
X259080000Y-25400000D03*
X248920000Y-25400000D03*
D12*
X254000000Y-25400000D03*
%TD*%
D13*
%TO.C,MX43*%
X240030000Y-25400000D03*
D12*
X234950000Y-25400000D03*
D13*
X229870000Y-25400000D03*
%TD*%
D12*
%TO.C,MX14*%
X87312500Y-44450000D03*
D13*
X92392500Y-44450000D03*
X82232500Y-44450000D03*
%TD*%
D10*
%TO.C,D41*%
X233362500Y-68897500D03*
D11*
X233362500Y-61277500D03*
%TD*%
D10*
%TO.C,D44*%
X254762000Y-49911000D03*
D11*
X254762000Y-42291000D03*
%TD*%
D10*
%TO.C,D39*%
X223837500Y-30797500D03*
D11*
X223837500Y-23177500D03*
%TD*%
D10*
%TO.C,D30*%
X171450000Y-87947500D03*
D11*
X171450000Y-80327500D03*
%TD*%
D13*
%TO.C,MX9*%
X68580000Y-25400000D03*
D12*
X63500000Y-25400000D03*
D13*
X58420000Y-25400000D03*
%TD*%
D10*
%TO.C,D36*%
X209550000Y-49847500D03*
D11*
X209550000Y-42227500D03*
%TD*%
D10*
%TO.C,D13*%
X90487500Y-30797500D03*
D11*
X90487500Y-23177500D03*
%TD*%
D14*
%TO.C,MX30*%
X151606250Y-89535000D03*
D13*
X168592500Y-82550000D03*
D12*
X175418750Y-74295000D03*
D14*
X175418750Y-89535000D03*
D13*
X158432500Y-82550000D03*
D12*
X163512500Y-82550000D03*
X151606250Y-74295000D03*
%TD*%
%TO.C,MX35*%
X196850000Y-25400000D03*
D13*
X201930000Y-25400000D03*
X191770000Y-25400000D03*
%TD*%
%TO.C,MX21*%
X130492500Y-44450000D03*
D12*
X125412500Y-44450000D03*
D13*
X120332500Y-44450000D03*
%TD*%
D10*
%TO.C,D11*%
X80962500Y-68897500D03*
D11*
X80962500Y-61277500D03*
%TD*%
D12*
%TO.C,MX41*%
X225425000Y-63500000D03*
D13*
X230505000Y-63500000D03*
X220345000Y-63500000D03*
%TD*%
D15*
%TO.C,J1*%
X22225000Y-76200000D03*
D16*
X22225000Y-74200000D03*
X22225000Y-72200000D03*
%TD*%
D17*
%TO.C,SW1*%
X19050000Y-31750000D03*
D18*
X19050000Y-29210000D03*
%TD*%
D19*
%TO.C,U1*%
X19367500Y-36830000D03*
D20*
X21907500Y-36830000D03*
X24447500Y-36830000D03*
X26987500Y-36830000D03*
X29527500Y-36830000D03*
X32067500Y-36830000D03*
X34607500Y-36830000D03*
X37147500Y-36830000D03*
X39687500Y-36830000D03*
X42227500Y-36830000D03*
X44767500Y-36830000D03*
X47307500Y-36830000D03*
X47307500Y-52070000D03*
X44767500Y-52070000D03*
X42227500Y-52070000D03*
X39687500Y-52070000D03*
X37147500Y-52070000D03*
X34607500Y-52070000D03*
X32067500Y-52070000D03*
X29527500Y-52070000D03*
X26987500Y-52070000D03*
X24447500Y-52070000D03*
X21907500Y-52070000D03*
X19367500Y-52070000D03*
%TD*%
D21*
%TO.C,SW2*%
X17462500Y-42950000D03*
X17462500Y-45950000D03*
%TD*%
M02*
